<svg width="266" height="207" viewBox="0 0 266 207" fill="none" xmlns="http://www.w3.org/2000/svg">
<path d="M57.0406 154.658L51.2808 162.898L61.3005 163.764L57.0406 154.658Z" stroke="#E9F5FF" stroke-width="0.961583" stroke-miterlimit="10"/>
<path d="M7.53857 51.5758C17.7987 26.238 82.6479 28.5747 152.401 56.8068C204.509 77.8943 244.598 107.463 257.271 131.637" stroke="#E9F5FF" stroke-width="0.961583" stroke-miterlimit="10"/>
<path d="M89.7633 13.3525L86.3882 16.7758" stroke="#E9F5FF" stroke-width="0.961583" stroke-miterlimit="10"/>
<path d="M82.8786 20.3438L79.5034 23.767" stroke="#E9F5FF" stroke-width="0.961583" stroke-miterlimit="10"/>
<path d="M89.8407 23.6901L86.4175 20.3149" stroke="#E9F5FF" stroke-width="0.961583" stroke-miterlimit="10"/>
<path d="M82.85 16.7952L79.4268 13.4297" stroke="#E9F5FF" stroke-width="0.961583" stroke-miterlimit="10"/>
<path opacity="0.8" d="M232.155 109.569L237.28 118.021C240.492 123.329 238.925 130.224 233.722 133.608L225.443 139.003C221.857 141.34 219.866 145.474 220.27 149.734L221.222 159.571C221.818 165.745 217.404 171.274 211.25 172.072L201.452 173.331C197.202 173.88 193.615 176.745 192.134 180.755L188.72 190.025C186.576 195.842 180.201 198.919 174.316 196.958L164.94 193.842C160.873 192.496 156.402 193.515 153.325 196.496L146.228 203.371C141.776 207.689 134.699 207.689 130.237 203.371L123.14 196.496C120.063 193.515 115.592 192.496 111.524 193.842L102.149 196.958C96.2642 198.91 89.8889 195.842 87.7445 190.025L84.3309 180.755C82.8501 176.735 79.2634 173.87 75.0132 173.331L65.2146 172.072C59.0605 171.283 54.6468 165.745 55.243 159.571L56.195 149.734C56.6085 145.474 54.618 141.34 51.0217 139.003L42.7424 133.608C37.5403 130.224 35.9729 123.329 39.1846 118.021L44.3098 109.569C46.5311 105.905 46.5311 101.318 44.3098 97.6548L39.1846 89.2025C35.9729 83.8946 37.5403 77 42.7424 73.6153L51.0217 68.2208C54.6084 65.8841 56.5988 61.7493 56.195 57.4895L55.243 47.6525C54.6468 41.4791 59.0605 35.95 65.2146 35.1519L75.0132 33.8923C79.2634 33.3442 82.8501 30.4786 84.3309 26.4688L87.7445 17.1992C89.8889 11.3816 96.2642 8.30452 102.149 10.2662L111.524 13.3817C115.592 14.7279 120.063 13.7086 123.14 10.7277L130.237 3.85239C134.689 -0.465119 141.766 -0.465119 146.228 3.85239L153.325 10.7277C156.402 13.7086 160.873 14.7279 164.94 13.3817L174.316 10.2662C180.201 8.31414 186.576 11.3816 188.72 17.1992L192.134 26.4688C193.615 30.4882 197.202 33.3538 201.452 33.8923L211.25 35.1519C217.404 35.9404 221.818 41.4791 221.222 47.6525L220.27 57.4895C219.856 61.7493 221.847 65.8841 225.443 68.2208L233.722 73.6153C238.925 77 240.492 83.8946 237.28 89.2025L232.155 97.6548C229.934 101.318 229.934 105.905 232.155 109.569Z" fill="url(#paint0_linear_970_2260)"/>
<path opacity="0.8" d="M138.237 183.592C182.411 183.592 218.221 147.782 218.221 103.608C218.221 59.4333 182.411 23.623 138.237 23.623C94.0627 23.623 58.2524 59.4333 58.2524 103.608C58.2524 147.782 94.0627 183.592 138.237 183.592Z" fill="url(#paint1_linear_970_2260)"/>
<path opacity="0.5" d="M138.237 178.649C179.172 178.649 212.356 145.465 212.356 104.53C212.356 63.5953 179.172 30.4111 138.237 30.4111C97.3023 30.4111 64.1182 63.5953 64.1182 104.53C64.1182 145.465 97.3023 178.649 138.237 178.649Z" fill="url(#paint2_linear_970_2260)"/>
<g opacity="0.5">
<path d="M134.727 100.328L130.679 102.453C129.333 103.165 127.756 102.021 128.015 100.521L128.785 96.0107C128.891 95.4145 128.689 94.8087 128.256 94.3856L124.977 91.1931C123.89 90.1354 124.486 88.2796 125.996 88.0584L130.525 87.4045C131.121 87.318 131.641 86.943 131.91 86.4045L133.939 82.2985C134.612 80.9331 136.554 80.9331 137.227 82.2985L139.256 86.4045C139.526 86.943 140.045 87.318 140.641 87.4045L145.17 88.0584C146.68 88.2796 147.276 90.1258 146.189 91.1931L142.91 94.3856C142.478 94.8087 142.276 95.4145 142.382 96.0107L143.151 100.521C143.41 102.021 141.833 103.165 140.487 102.453L136.439 100.328C135.9 100.049 135.266 100.049 134.727 100.328Z" fill="url(#paint3_linear_970_2260)"/>
<path d="M162.652 105.549L158.825 106.857C157.555 107.29 156.334 106.078 156.767 104.809L158.055 100.982C158.228 100.472 158.132 99.9142 157.815 99.4911L155.392 96.2602C154.584 95.1833 155.363 93.6543 156.709 93.6639L160.748 93.7024C161.286 93.7024 161.786 93.4524 162.094 93.0101L164.421 89.7022C165.19 88.606 166.892 88.8657 167.296 90.1542L168.508 94.0101C168.671 94.5198 169.065 94.914 169.575 95.0775L173.441 96.2698C174.729 96.6641 174.998 98.3661 173.902 99.145L170.604 101.491C170.171 101.799 169.912 102.309 169.921 102.837L169.979 106.876C169.998 108.222 168.469 109.001 167.392 108.203L164.142 105.79C163.709 105.472 163.152 105.386 162.652 105.559V105.549Z" fill="url(#paint4_linear_970_2260)"/>
<path d="M108.505 106.232L112.332 107.539C113.602 107.972 114.823 106.761 114.39 105.491L113.102 101.664C112.928 101.155 113.025 100.597 113.342 100.174L115.765 96.9428C116.573 95.8659 115.794 94.337 114.448 94.3466L110.409 94.385C109.871 94.385 109.371 94.135 109.063 93.6927L106.736 90.3848C105.967 89.2886 104.265 89.5483 103.861 90.8368L102.649 94.6927C102.486 95.2024 102.091 95.5966 101.582 95.7601L97.7162 96.9525C96.4277 97.3467 96.1584 99.0487 97.2546 99.8276L100.553 102.174C100.986 102.482 101.245 102.991 101.236 103.52L101.178 107.559C101.159 108.905 102.688 109.684 103.765 108.886L107.015 106.472C107.447 106.155 108.005 106.068 108.505 106.241V106.232Z" fill="url(#paint5_linear_970_2260)"/>
</g>
<g opacity="0.1">
<path d="M134.727 100.328L130.679 102.453C129.333 103.165 127.756 102.021 128.015 100.521L128.785 96.0107C128.891 95.4145 128.689 94.8087 128.256 94.3856L124.977 91.1931C123.89 90.1354 124.486 88.2796 125.996 88.0584L130.525 87.4045C131.121 87.318 131.641 86.943 131.91 86.4045L133.939 82.2985C134.612 80.9331 136.554 80.9331 137.227 82.2985L139.256 86.4045C139.526 86.943 140.045 87.318 140.641 87.4045L145.17 88.0584C146.68 88.2796 147.276 90.1258 146.189 91.1931L142.91 94.3856C142.478 94.8087 142.276 95.4145 142.382 96.0107L143.151 100.521C143.41 102.021 141.833 103.165 140.487 102.453L136.439 100.328C135.9 100.049 135.266 100.049 134.727 100.328Z" fill="#020202"/>
<path d="M162.652 105.549L158.825 106.857C157.555 107.29 156.334 106.078 156.767 104.809L158.055 100.982C158.228 100.472 158.132 99.9142 157.815 99.4911L155.392 96.2602C154.584 95.1833 155.363 93.6543 156.709 93.6639L160.748 93.7024C161.286 93.7024 161.786 93.4524 162.094 93.0101L164.421 89.7022C165.19 88.606 166.892 88.8657 167.296 90.1542L168.508 94.0101C168.671 94.5198 169.065 94.914 169.575 95.0775L173.441 96.2698C174.729 96.6641 174.998 98.3661 173.902 99.145L170.604 101.491C170.171 101.799 169.912 102.309 169.921 102.837L169.979 106.876C169.998 108.222 168.469 109.001 167.392 108.203L164.142 105.79C163.709 105.472 163.152 105.386 162.652 105.559V105.549Z" fill="#020202"/>
<path d="M108.505 106.232L112.332 107.539C113.602 107.972 114.823 106.761 114.39 105.491L113.102 101.664C112.928 101.155 113.025 100.597 113.342 100.174L115.765 96.9428C116.573 95.8659 115.794 94.337 114.448 94.3466L110.409 94.385C109.871 94.385 109.371 94.135 109.063 93.6927L106.736 90.3848C105.967 89.2886 104.265 89.5483 103.861 90.8368L102.649 94.6927C102.486 95.2024 102.091 95.5966 101.582 95.7601L97.7162 96.9525C96.4277 97.3467 96.1584 99.0487 97.2546 99.8276L100.553 102.174C100.986 102.482 101.245 102.991 101.236 103.52L101.178 107.559C101.159 108.905 102.688 109.684 103.765 108.886L107.015 106.472C107.447 106.155 108.005 106.068 108.505 106.241V106.232Z" fill="#020202"/>
</g>
<path d="M100.284 132.33H101.688V134.618C101.688 134.887 101.63 135.118 101.524 135.311C101.418 135.503 101.265 135.647 101.053 135.753C100.851 135.849 100.611 135.907 100.332 135.907C100.053 135.907 99.8318 135.859 99.6299 135.762C99.428 135.666 99.2741 135.532 99.178 135.349C99.0722 135.166 99.0241 134.955 99.0241 134.724V126.041C99.0241 125.752 99.0722 125.493 99.178 125.281C99.2837 125.07 99.4184 124.897 99.6107 124.781C99.803 124.666 100.024 124.608 100.274 124.608C100.505 124.608 100.707 124.656 100.88 124.762C101.053 124.868 101.188 125.012 101.274 125.214C101.37 125.406 101.409 125.637 101.409 125.906V127.195H104.342V125.906C104.342 125.031 104.178 124.281 103.861 123.646C103.534 123.021 103.072 122.541 102.457 122.204C101.851 121.877 101.111 121.704 100.265 121.704C99.4184 121.704 98.6491 121.877 98.0337 122.214C97.4086 122.55 96.9375 123.05 96.6105 123.704C96.2836 124.358 96.1201 125.127 96.1201 126.022V134.705C96.1201 135.561 96.2836 136.291 96.6201 136.907C96.9567 137.522 97.4375 137.993 98.0625 138.311C98.6875 138.628 99.4472 138.791 100.332 138.791C101.217 138.791 101.947 138.628 102.563 138.291C103.188 137.955 103.659 137.474 103.986 136.849C104.313 136.224 104.476 135.464 104.476 134.589V129.579H100.274V132.32L100.284 132.33Z" fill="url(#paint6_linear_970_2260)"/>
<path d="M111.159 135.532C111.159 135.849 111.092 136.08 110.948 136.243C110.813 136.397 110.602 136.474 110.323 136.464C110.034 136.464 109.813 136.407 109.678 136.253C109.544 136.109 109.467 135.878 109.467 135.57V126.666H106.649V135.57C106.649 136.657 106.861 137.464 107.274 137.993C107.688 138.522 108.332 138.791 109.178 138.791C109.698 138.791 110.14 138.618 110.496 138.263C110.755 138.003 110.977 137.638 111.15 137.176V138.609H113.967V126.656H111.15V135.512L111.159 135.532Z" fill="url(#paint7_linear_970_2260)"/>
<path d="M121.919 126.887C121.371 126.609 120.717 126.464 119.948 126.464C118.804 126.464 117.919 126.782 117.284 127.407C116.65 128.032 116.333 128.916 116.333 130.061H119.063C119.063 129.743 119.14 129.503 119.285 129.33C119.438 129.157 119.64 129.07 119.91 129.07C120.227 129.07 120.467 129.157 120.631 129.32C120.804 129.493 120.881 129.734 120.881 130.041V131.436H120.025C118.746 131.436 117.765 131.772 117.092 132.445C116.419 133.119 116.083 134.099 116.083 135.369C116.083 136.484 116.313 137.33 116.784 137.917C117.256 138.503 117.929 138.792 118.823 138.792C119.304 138.792 119.698 138.686 120.035 138.484C120.362 138.282 120.621 137.984 120.804 137.59C120.842 137.503 120.862 137.407 120.89 137.311V138.619H123.602V130.041C123.602 129.291 123.458 128.647 123.169 128.109C122.881 127.57 122.467 127.166 121.919 126.878V126.887ZM120.564 136.099C120.342 136.321 120.035 136.426 119.65 136.426C119.371 136.426 119.15 136.34 119.006 136.157C118.861 135.984 118.785 135.715 118.785 135.378C118.785 134.83 118.9 134.417 119.14 134.138C119.381 133.859 119.727 133.715 120.188 133.715H120.89V135.157C120.89 135.571 120.785 135.888 120.564 136.109V136.099Z" fill="url(#paint8_linear_970_2260)"/>
<path d="M128.737 128.32V126.676H125.881V138.628H128.737V131.753C128.737 131.051 128.929 130.503 129.304 130.099C129.679 129.695 130.208 129.493 130.881 129.493H131.602V126.474C130.958 126.474 130.362 126.676 129.823 127.089C129.4 127.406 129.035 127.82 128.737 128.329V128.32Z" fill="url(#paint9_linear_970_2260)"/>
<path d="M138.911 126.887C138.362 126.609 137.709 126.464 136.939 126.464C135.795 126.464 134.91 126.782 134.276 127.407C133.641 128.032 133.324 128.916 133.324 130.061H136.055C136.055 129.743 136.132 129.503 136.276 129.33C136.43 129.157 136.632 129.07 136.901 129.07C137.218 129.07 137.459 129.157 137.622 129.32C137.795 129.493 137.872 129.734 137.872 130.041V131.436H137.016C135.737 131.436 134.757 131.772 134.083 132.445C133.41 133.119 133.074 134.099 133.074 135.369C133.074 136.484 133.305 137.33 133.776 137.917C134.247 138.503 134.92 138.792 135.814 138.792C136.295 138.792 136.689 138.686 137.026 138.484C137.362 138.282 137.612 137.984 137.795 137.59C137.834 137.503 137.853 137.407 137.882 137.311V138.619H140.593V130.041C140.593 129.291 140.449 128.647 140.161 128.109C139.872 127.57 139.459 127.166 138.911 126.878V126.887ZM137.555 136.099C137.334 136.321 137.026 136.426 136.641 136.426C136.362 136.426 136.141 136.34 135.997 136.157C135.853 135.984 135.776 135.715 135.776 135.378C135.776 134.83 135.891 134.417 136.132 134.138C136.372 133.859 136.718 133.715 137.18 133.715H137.882V135.157C137.882 135.571 137.776 135.888 137.555 136.109V136.099Z" fill="url(#paint10_linear_970_2260)"/>
<path d="M148.084 126.464C147.527 126.464 147.017 126.666 146.555 127.061C146.228 127.339 145.959 127.714 145.748 128.166V126.676H142.873V138.628H145.748V130.176C145.748 129.801 145.825 129.513 145.969 129.32C146.123 129.128 146.344 129.032 146.642 129.032C146.94 129.032 147.18 129.128 147.334 129.33C147.488 129.532 147.565 129.811 147.565 130.186V138.628H150.421V129.493C150.421 128.532 150.219 127.791 149.806 127.262C149.392 126.734 148.825 126.464 148.084 126.464Z" fill="url(#paint11_linear_970_2260)"/>
<path d="M155.671 123.194H152.825V126.675H151.786V129.291H152.825V135.522C152.825 136.57 153.075 137.358 153.575 137.887C154.075 138.426 154.863 138.685 155.94 138.685H157.2V135.878H156.383C156.161 135.878 155.988 135.81 155.854 135.666C155.729 135.522 155.661 135.32 155.661 135.06V129.291H157.19V126.675H155.661V123.194H155.671Z" fill="url(#paint12_linear_970_2260)"/>
<path d="M163.364 135.407C163.364 135.676 163.287 135.888 163.123 136.032C162.96 136.176 162.729 136.253 162.431 136.253C162.104 136.253 161.864 136.166 161.69 135.984C161.517 135.811 161.431 135.551 161.431 135.224V133.657H166.085V130.272C166.085 129.464 165.941 128.781 165.643 128.214C165.344 127.647 164.921 127.214 164.364 126.916C163.806 126.618 163.133 126.474 162.344 126.474C161.556 126.474 160.902 126.627 160.354 126.926C159.806 127.233 159.383 127.676 159.094 128.253C158.806 128.839 158.652 129.541 158.652 130.358V135.128C158.652 135.907 158.806 136.57 159.104 137.118C159.402 137.666 159.835 138.09 160.402 138.378C160.969 138.667 161.642 138.811 162.431 138.811C163.594 138.811 164.508 138.513 165.152 137.907C165.796 137.301 166.123 136.455 166.123 135.359V135.022L163.373 135.003V135.416L163.364 135.407ZM161.662 129.33C161.815 129.118 162.046 129.012 162.335 129.012C162.642 129.012 162.883 129.108 163.056 129.31C163.229 129.512 163.316 129.791 163.316 130.137V131.57H161.431V130.224C161.431 129.839 161.508 129.541 161.671 129.33H161.662Z" fill="url(#paint13_linear_970_2260)"/>
<path d="M172.604 134.993V135.407C172.604 135.676 172.527 135.888 172.364 136.032C172.2 136.176 171.97 136.253 171.672 136.253C171.345 136.253 171.104 136.166 170.931 135.984C170.758 135.811 170.672 135.551 170.672 135.224V133.657H175.326V130.272C175.326 129.464 175.181 128.781 174.883 128.214C174.585 127.647 174.162 127.214 173.604 126.916C173.047 126.618 172.374 126.474 171.585 126.474C170.797 126.474 170.143 126.627 169.595 126.926C169.046 127.233 168.623 127.676 168.335 128.253C168.046 128.839 167.893 129.541 167.893 130.358V135.128C167.893 135.907 168.046 136.57 168.345 137.118C168.643 137.666 169.075 138.09 169.643 138.378C170.21 138.667 170.883 138.811 171.672 138.811C172.835 138.811 173.749 138.513 174.393 137.907C175.037 137.301 175.364 136.455 175.364 135.359V135.022L172.614 135.003L172.604 134.993ZM170.902 129.33C171.056 129.118 171.287 129.012 171.575 129.012C171.883 129.012 172.124 129.108 172.297 129.31C172.47 129.512 172.556 129.791 172.556 130.137V131.57H170.672V130.224C170.672 129.839 170.748 129.541 170.912 129.33H170.902Z" fill="url(#paint14_linear_970_2260)"/>
<g opacity="0.1">
<path d="M100.284 132.33H101.688V134.618C101.688 134.887 101.63 135.118 101.524 135.311C101.418 135.503 101.265 135.647 101.053 135.753C100.851 135.849 100.611 135.907 100.332 135.907C100.053 135.907 99.8318 135.859 99.6299 135.762C99.428 135.666 99.2741 135.532 99.178 135.349C99.0722 135.166 99.0241 134.955 99.0241 134.724V126.041C99.0241 125.752 99.0722 125.493 99.178 125.281C99.2837 125.07 99.4184 124.897 99.6107 124.781C99.803 124.666 100.024 124.608 100.274 124.608C100.505 124.608 100.707 124.656 100.88 124.762C101.053 124.868 101.188 125.012 101.274 125.214C101.37 125.406 101.409 125.637 101.409 125.906V127.195H104.342V125.906C104.342 125.031 104.178 124.281 103.861 123.646C103.534 123.021 103.072 122.541 102.457 122.204C101.851 121.877 101.111 121.704 100.265 121.704C99.4184 121.704 98.6491 121.877 98.0337 122.214C97.4086 122.55 96.9375 123.05 96.6105 123.704C96.2836 124.358 96.1201 125.127 96.1201 126.022V134.705C96.1201 135.561 96.2836 136.291 96.6201 136.907C96.9567 137.522 97.4375 137.993 98.0625 138.311C98.6875 138.628 99.4472 138.791 100.332 138.791C101.217 138.791 101.947 138.628 102.563 138.291C103.188 137.955 103.659 137.474 103.986 136.849C104.313 136.224 104.476 135.464 104.476 134.589V129.579H100.274V132.32L100.284 132.33Z" fill="#020202"/>
<path d="M111.159 135.532C111.159 135.849 111.092 136.08 110.948 136.243C110.813 136.397 110.602 136.474 110.323 136.464C110.034 136.464 109.813 136.407 109.678 136.253C109.544 136.109 109.467 135.878 109.467 135.57V126.666H106.649V135.57C106.649 136.657 106.861 137.464 107.274 137.993C107.688 138.522 108.332 138.791 109.178 138.791C109.698 138.791 110.14 138.618 110.496 138.263C110.755 138.003 110.977 137.638 111.15 137.176V138.609H113.967V126.656H111.15V135.512L111.159 135.532Z" fill="#020202"/>
<path d="M121.919 126.887C121.371 126.609 120.717 126.464 119.948 126.464C118.804 126.464 117.919 126.782 117.284 127.407C116.65 128.032 116.333 128.916 116.333 130.061H119.063C119.063 129.743 119.14 129.503 119.285 129.33C119.438 129.157 119.64 129.07 119.91 129.07C120.227 129.07 120.467 129.157 120.631 129.32C120.804 129.493 120.881 129.734 120.881 130.041V131.436H120.025C118.746 131.436 117.765 131.772 117.092 132.445C116.419 133.119 116.083 134.099 116.083 135.369C116.083 136.484 116.313 137.33 116.784 137.917C117.256 138.503 117.929 138.792 118.823 138.792C119.304 138.792 119.698 138.686 120.035 138.484C120.362 138.282 120.621 137.984 120.804 137.59C120.842 137.503 120.862 137.407 120.89 137.311V138.619H123.602V130.041C123.602 129.291 123.458 128.647 123.169 128.109C122.881 127.57 122.467 127.166 121.919 126.878V126.887ZM120.564 136.099C120.342 136.321 120.035 136.426 119.65 136.426C119.371 136.426 119.15 136.34 119.006 136.157C118.861 135.984 118.785 135.715 118.785 135.378C118.785 134.83 118.9 134.417 119.14 134.138C119.381 133.859 119.727 133.715 120.188 133.715H120.89V135.157C120.89 135.571 120.785 135.888 120.564 136.109V136.099Z" fill="#020202"/>
<path d="M128.737 128.32V126.676H125.881V138.628H128.737V131.753C128.737 131.051 128.929 130.503 129.304 130.099C129.679 129.695 130.208 129.493 130.881 129.493H131.602V126.474C130.958 126.474 130.362 126.676 129.823 127.089C129.4 127.406 129.035 127.82 128.737 128.329V128.32Z" fill="#020202"/>
<path d="M138.911 126.887C138.362 126.609 137.709 126.464 136.939 126.464C135.795 126.464 134.91 126.782 134.276 127.407C133.641 128.032 133.324 128.916 133.324 130.061H136.055C136.055 129.743 136.132 129.503 136.276 129.33C136.43 129.157 136.632 129.07 136.901 129.07C137.218 129.07 137.459 129.157 137.622 129.32C137.795 129.493 137.872 129.734 137.872 130.041V131.436H137.016C135.737 131.436 134.757 131.772 134.083 132.445C133.41 133.119 133.074 134.099 133.074 135.369C133.074 136.484 133.305 137.33 133.776 137.917C134.247 138.503 134.92 138.792 135.814 138.792C136.295 138.792 136.689 138.686 137.026 138.484C137.362 138.282 137.612 137.984 137.795 137.59C137.834 137.503 137.853 137.407 137.882 137.311V138.619H140.593V130.041C140.593 129.291 140.449 128.647 140.161 128.109C139.872 127.57 139.459 127.166 138.911 126.878V126.887ZM137.555 136.099C137.334 136.321 137.026 136.426 136.641 136.426C136.362 136.426 136.141 136.34 135.997 136.157C135.853 135.984 135.776 135.715 135.776 135.378C135.776 134.83 135.891 134.417 136.132 134.138C136.372 133.859 136.718 133.715 137.18 133.715H137.882V135.157C137.882 135.571 137.776 135.888 137.555 136.109V136.099Z" fill="#020202"/>
<path d="M148.084 126.464C147.527 126.464 147.017 126.666 146.555 127.061C146.228 127.339 145.959 127.714 145.748 128.166V126.676H142.873V138.628H145.748V130.176C145.748 129.801 145.825 129.513 145.969 129.32C146.123 129.128 146.344 129.032 146.642 129.032C146.94 129.032 147.18 129.128 147.334 129.33C147.488 129.532 147.565 129.811 147.565 130.186V138.628H150.421V129.493C150.421 128.532 150.219 127.791 149.806 127.262C149.392 126.734 148.825 126.464 148.084 126.464Z" fill="#020202"/>
<path d="M155.671 123.194H152.825V126.675H151.786V129.291H152.825V135.522C152.825 136.57 153.075 137.358 153.575 137.887C154.075 138.426 154.863 138.685 155.94 138.685H157.2V135.878H156.383C156.161 135.878 155.988 135.81 155.854 135.666C155.729 135.522 155.661 135.32 155.661 135.06V129.291H157.19V126.675H155.661V123.194H155.671Z" fill="#020202"/>
<path d="M163.364 135.407C163.364 135.676 163.287 135.888 163.123 136.032C162.96 136.176 162.729 136.253 162.431 136.253C162.104 136.253 161.864 136.166 161.69 135.984C161.517 135.811 161.431 135.551 161.431 135.224V133.657H166.085V130.272C166.085 129.464 165.941 128.781 165.643 128.214C165.344 127.647 164.921 127.214 164.364 126.916C163.806 126.618 163.133 126.474 162.344 126.474C161.556 126.474 160.902 126.627 160.354 126.926C159.806 127.233 159.383 127.676 159.094 128.253C158.806 128.839 158.652 129.541 158.652 130.358V135.128C158.652 135.907 158.806 136.57 159.104 137.118C159.402 137.666 159.835 138.09 160.402 138.378C160.969 138.667 161.642 138.811 162.431 138.811C163.594 138.811 164.508 138.513 165.152 137.907C165.796 137.301 166.123 136.455 166.123 135.359V135.022L163.373 135.003V135.416L163.364 135.407ZM161.662 129.33C161.815 129.118 162.046 129.012 162.335 129.012C162.642 129.012 162.883 129.108 163.056 129.31C163.229 129.512 163.316 129.791 163.316 130.137V131.57H161.431V130.224C161.431 129.839 161.508 129.541 161.671 129.33H161.662Z" fill="#020202"/>
<path d="M172.604 134.993V135.407C172.604 135.676 172.527 135.888 172.364 136.032C172.2 136.176 171.97 136.253 171.672 136.253C171.345 136.253 171.104 136.166 170.931 135.984C170.758 135.811 170.672 135.551 170.672 135.224V133.657H175.326V130.272C175.326 129.464 175.181 128.781 174.883 128.214C174.585 127.647 174.162 127.214 173.604 126.916C173.047 126.618 172.374 126.474 171.585 126.474C170.797 126.474 170.143 126.627 169.595 126.926C169.046 127.233 168.623 127.676 168.335 128.253C168.046 128.839 167.893 129.541 167.893 130.358V135.128C167.893 135.907 168.046 136.57 168.345 137.118C168.643 137.666 169.075 138.09 169.643 138.378C170.21 138.667 170.883 138.811 171.672 138.811C172.835 138.811 173.749 138.513 174.393 137.907C175.037 137.301 175.364 136.455 175.364 135.359V135.022L172.614 135.003L172.604 134.993ZM170.902 129.33C171.056 129.118 171.287 129.012 171.575 129.012C171.883 129.012 172.124 129.108 172.297 129.31C172.47 129.512 172.556 129.791 172.556 130.137V131.57H170.672V130.224C170.672 129.839 170.748 129.541 170.912 129.33H170.902Z" fill="#020202"/>
</g>
<g opacity="0.5">
<path d="M175.354 114.973H96.5815V115.935H175.354V114.973Z" fill="url(#paint15_linear_970_2260)"/>
</g>
<path d="M16.2604 82.2887C7.48115 70.7785 4.08676 60.1049 7.53884 51.5757" stroke="#E9F5FF" stroke-width="0.961583" stroke-miterlimit="10"/>
<path d="M260.118 153.802C249.858 179.139 185.009 176.803 115.255 148.571C78.0036 133.493 46.8868 114.079 27.5493 95.4048" stroke="#E9F5FF" stroke-width="0.961583" stroke-miterlimit="10"/>
<mask id="mask0_970_2260" style="mask-type:luminance" maskUnits="userSpaceOnUse" x="37" y="0" width="202" height="207">
<path d="M232.155 109.569L237.28 118.021C240.492 123.329 238.925 130.224 233.722 133.608L225.443 139.003C221.857 141.34 219.866 145.474 220.27 149.734L221.222 159.571C221.818 165.745 217.404 171.274 211.25 172.072L201.452 173.331C197.202 173.88 193.615 176.745 192.134 180.755L188.72 190.025C186.576 195.842 180.201 198.919 174.316 196.958L164.94 193.842C160.873 192.496 156.402 193.515 153.325 196.496L146.228 203.371C141.776 207.689 134.699 207.689 130.237 203.371L123.14 196.496C120.063 193.515 115.592 192.496 111.524 193.842L102.149 196.958C96.2642 198.91 89.8889 195.842 87.7445 190.025L84.3309 180.755C82.8501 176.735 79.2634 173.87 75.0132 173.331L65.2146 172.072C59.0605 171.283 54.6468 165.745 55.243 159.571L56.195 149.734C56.6085 145.474 54.618 141.34 51.0217 139.003L42.7424 133.608C37.5403 130.224 35.9729 123.329 39.1846 118.021L44.3098 109.569C46.5311 105.905 46.5311 101.318 44.3098 97.6548L39.1846 89.2025C35.9729 83.8946 37.5403 77 42.7424 73.6153L51.0217 68.2208C54.6084 65.8841 56.5988 61.7493 56.195 57.4895L55.243 47.6525C54.6468 41.4791 59.0605 35.95 65.2146 35.1519L75.0132 33.8923C79.2634 33.3442 82.8501 30.4786 84.3309 26.4688L87.7445 17.1992C89.8889 11.3816 96.2642 8.30452 102.149 10.2662L111.524 13.3817C115.592 14.7279 120.063 13.7086 123.14 10.7277L130.237 3.85239C134.689 -0.465119 141.766 -0.465119 146.228 3.85239L153.325 10.7277C156.402 13.7086 160.873 14.7279 164.94 13.3817L174.316 10.2662C180.201 8.31414 186.576 11.3816 188.72 17.1992L192.134 26.4688C193.615 30.4882 197.202 33.3538 201.452 33.8923L211.25 35.1519C217.404 35.9404 221.818 41.4791 221.222 47.6525L220.27 57.4895C219.856 61.7493 221.847 65.8841 225.443 68.2208L233.722 73.6153C238.925 77 240.492 83.8946 237.28 89.2025L232.155 97.6548C229.934 101.318 229.934 105.905 232.155 109.569Z" fill="white"/>
</mask>
<g mask="url(#mask0_970_2260)">
<path opacity="0.1" d="M273.859 152.465C263.599 177.803 196.769 174.658 124.583 145.446C52.3965 116.233 2.19225 72.0094 12.4523 46.6621" stroke="black" stroke-width="2.88475" stroke-miterlimit="10"/>
</g>
<path d="M21.4048 95.8663C24.8143 95.8663 27.5782 93.1023 27.5782 89.6929C27.5782 86.2834 24.8143 83.5195 21.4048 83.5195C17.9954 83.5195 15.2314 86.2834 15.2314 89.6929C15.2314 93.1023 17.9954 95.8663 21.4048 95.8663Z" stroke="#E9F5FF" stroke-width="0.961583" stroke-miterlimit="10"/>
<path d="M70.2915 204.525C73.701 204.525 76.4649 201.762 76.4649 198.352C76.4649 194.943 73.701 192.179 70.2915 192.179C66.8821 192.179 64.1182 194.943 64.1182 198.352C64.1182 201.762 66.8821 204.525 70.2915 204.525Z" stroke="#E9F5FF" stroke-width="0.961583" stroke-miterlimit="10"/>
<path d="M247.357 61.7012C250.767 61.7012 253.531 58.9373 253.531 55.5279C253.531 52.1184 250.767 49.3545 247.357 49.3545C243.948 49.3545 241.184 52.1184 241.184 55.5279C241.184 58.9373 243.948 61.7012 247.357 61.7012Z" stroke="#E9F5FF" stroke-width="0.961583" stroke-miterlimit="10"/>
<path d="M11.3372 107.973L7.97168 111.396" stroke="#E9F5FF" stroke-width="0.961583" stroke-miterlimit="10"/>
<path d="M4.45231 114.963L1.07715 118.387" stroke="#E9F5FF" stroke-width="0.961583" stroke-miterlimit="10"/>
<path d="M11.414 118.309L7.99072 114.944" stroke="#E9F5FF" stroke-width="0.961583" stroke-miterlimit="10"/>
<path d="M4.42324 111.424L1 108.049" stroke="#E9F5FF" stroke-width="0.961583" stroke-miterlimit="10"/>
<path d="M223.356 189.698L219.981 193.131" stroke="#E9F5FF" stroke-width="0.961583" stroke-miterlimit="10"/>
<path d="M216.462 196.698L213.096 200.121" stroke="#E9F5FF" stroke-width="0.961583" stroke-miterlimit="10"/>
<path d="M223.433 200.045L220.01 196.669" stroke="#E9F5FF" stroke-width="0.961583" stroke-miterlimit="10"/>
<path d="M216.443 193.15L213.02 189.775" stroke="#E9F5FF" stroke-width="0.961583" stroke-miterlimit="10"/>
<path d="M206.49 14.9686L202.644 5.67969L196.519 13.6512L206.49 14.9686Z" stroke="#E9F5FF" stroke-width="0.961583" stroke-miterlimit="10"/>
<path d="M264.877 147.493L262.897 137.637L255.348 144.291L264.877 147.493Z" stroke="#E9F5FF" stroke-width="0.961583" stroke-miterlimit="10"/>
<defs>
<linearGradient id="paint0_linear_970_2260" x1="239.809" y1="-1.94596" x2="-74.1477" y2="324.348" gradientUnits="userSpaceOnUse">
<stop stop-color="#01A5E3"/>
<stop offset="0.07" stop-color="#0190D5"/>
<stop offset="0.19" stop-color="#0174C2"/>
<stop offset="0.31" stop-color="#015FB4"/>
<stop offset="0.42" stop-color="#0153AB"/>
<stop offset="0.53" stop-color="#014FA9"/>
<stop offset="1" stop-color="#0148A5"/>
</linearGradient>
<linearGradient id="paint1_linear_970_2260" x1="51.3386" y1="199.737" x2="387.229" y2="-171.8" gradientUnits="userSpaceOnUse">
<stop stop-color="#01A5E3"/>
<stop offset="0.07" stop-color="#0190D5"/>
<stop offset="0.19" stop-color="#0174C2"/>
<stop offset="0.31" stop-color="#015FB4"/>
<stop offset="0.42" stop-color="#0153AB"/>
<stop offset="0.53" stop-color="#014FA9"/>
<stop offset="1" stop-color="#0148A5"/>
</linearGradient>
<linearGradient id="paint2_linear_970_2260" x1="200.163" y1="51.0275" x2="-78.9462" y2="292.164" gradientUnits="userSpaceOnUse">
<stop stop-color="#01A5E3"/>
<stop offset="0.27" stop-color="#0181CB"/>
<stop offset="0.6" stop-color="#015DB2"/>
<stop offset="0.77" stop-color="#014FA9"/>
<stop offset="1" stop-color="#0148A5"/>
</linearGradient>
<linearGradient id="paint3_linear_970_2260" x1="232.597" y1="44.2871" x2="74.2533" y2="124.483" gradientUnits="userSpaceOnUse">
<stop stop-color="#01A5E3"/>
<stop offset="0.27" stop-color="#0181CB"/>
<stop offset="0.6" stop-color="#015DB2"/>
<stop offset="0.77" stop-color="#014FA9"/>
<stop offset="1" stop-color="#0148A5"/>
</linearGradient>
<linearGradient id="paint4_linear_970_2260" x1="241.175" y1="61.2105" x2="82.8306" y2="141.416" gradientUnits="userSpaceOnUse">
<stop stop-color="#01A5E3"/>
<stop offset="0.27" stop-color="#0181CB"/>
<stop offset="0.6" stop-color="#015DB2"/>
<stop offset="0.77" stop-color="#014FA9"/>
<stop offset="1" stop-color="#0148A5"/>
</linearGradient>
<linearGradient id="paint5_linear_970_2260" x1="229.309" y1="37.7959" x2="70.965" y2="117.992" gradientUnits="userSpaceOnUse">
<stop stop-color="#01A5E3"/>
<stop offset="0.27" stop-color="#0181CB"/>
<stop offset="0.6" stop-color="#015DB2"/>
<stop offset="0.77" stop-color="#014FA9"/>
<stop offset="1" stop-color="#0148A5"/>
</linearGradient>
<linearGradient id="paint6_linear_970_2260" x1="234.223" y1="59.2493" x2="18.9819" y2="173.389" gradientUnits="userSpaceOnUse">
<stop stop-color="#01A5E3"/>
<stop offset="0.27" stop-color="#0181CB"/>
<stop offset="0.6" stop-color="#015DB2"/>
<stop offset="0.77" stop-color="#014FA9"/>
<stop offset="1" stop-color="#0148A5"/>
</linearGradient>
<linearGradient id="paint7_linear_970_2260" x1="237.406" y1="65.2592" x2="22.1647" y2="179.399" gradientUnits="userSpaceOnUse">
<stop stop-color="#01A5E3"/>
<stop offset="0.27" stop-color="#0181CB"/>
<stop offset="0.6" stop-color="#015DB2"/>
<stop offset="0.77" stop-color="#014FA9"/>
<stop offset="1" stop-color="#0148A5"/>
</linearGradient>
<linearGradient id="paint8_linear_970_2260" x1="239.752" y1="69.6829" x2="24.511" y2="183.813" gradientUnits="userSpaceOnUse">
<stop stop-color="#01A5E3"/>
<stop offset="0.27" stop-color="#0181CB"/>
<stop offset="0.6" stop-color="#015DB2"/>
<stop offset="0.77" stop-color="#014FA9"/>
<stop offset="1" stop-color="#0148A5"/>
</linearGradient>
<linearGradient id="paint9_linear_970_2260" x1="241.136" y1="72.298" x2="25.8954" y2="186.428" gradientUnits="userSpaceOnUse">
<stop stop-color="#01A5E3"/>
<stop offset="0.27" stop-color="#0181CB"/>
<stop offset="0.6" stop-color="#015DB2"/>
<stop offset="0.77" stop-color="#014FA9"/>
<stop offset="1" stop-color="#0148A5"/>
</linearGradient>
<linearGradient id="paint10_linear_970_2260" x1="243.483" y1="76.7121" x2="28.2323" y2="190.852" gradientUnits="userSpaceOnUse">
<stop stop-color="#01A5E3"/>
<stop offset="0.27" stop-color="#0181CB"/>
<stop offset="0.6" stop-color="#015DB2"/>
<stop offset="0.77" stop-color="#014FA9"/>
<stop offset="1" stop-color="#0148A5"/>
</linearGradient>
<linearGradient id="paint11_linear_970_2260" x1="245.377" y1="80.2988" x2="30.1366" y2="194.429" gradientUnits="userSpaceOnUse">
<stop stop-color="#01A5E3"/>
<stop offset="0.27" stop-color="#0181CB"/>
<stop offset="0.6" stop-color="#015DB2"/>
<stop offset="0.77" stop-color="#014FA9"/>
<stop offset="1" stop-color="#0148A5"/>
</linearGradient>
<linearGradient id="paint12_linear_970_2260" x1="246.512" y1="82.4232" x2="31.2614" y2="196.563" gradientUnits="userSpaceOnUse">
<stop stop-color="#01A5E3"/>
<stop offset="0.27" stop-color="#0181CB"/>
<stop offset="0.6" stop-color="#015DB2"/>
<stop offset="0.77" stop-color="#014FA9"/>
<stop offset="1" stop-color="#0148A5"/>
</linearGradient>
<linearGradient id="paint13_linear_970_2260" x1="248.839" y1="86.8179" x2="33.5979" y2="200.958" gradientUnits="userSpaceOnUse">
<stop stop-color="#01A5E3"/>
<stop offset="0.27" stop-color="#0181CB"/>
<stop offset="0.6" stop-color="#015DB2"/>
<stop offset="0.77" stop-color="#014FA9"/>
<stop offset="1" stop-color="#0148A5"/>
</linearGradient>
<linearGradient id="paint14_linear_970_2260" x1="250.867" y1="90.645" x2="35.6268" y2="204.775" gradientUnits="userSpaceOnUse">
<stop stop-color="#01A5E3"/>
<stop offset="0.27" stop-color="#0181CB"/>
<stop offset="0.6" stop-color="#015DB2"/>
<stop offset="0.77" stop-color="#014FA9"/>
<stop offset="1" stop-color="#0148A5"/>
</linearGradient>
<linearGradient id="paint15_linear_970_2260" x1="166.296" y1="107.242" x2="124.939" y2="118.444" gradientUnits="userSpaceOnUse">
<stop stop-color="#01A5E3"/>
<stop offset="0.27" stop-color="#0181CB"/>
<stop offset="0.6" stop-color="#015DB2"/>
<stop offset="0.77" stop-color="#014FA9"/>
<stop offset="1" stop-color="#0148A5"/>
</linearGradient>
</defs>
</svg>
