<svg width="260" height="209" viewBox="0 0 260 209" fill="none" xmlns="http://www.w3.org/2000/svg">
<path d="M66.3406 36.5567C70.245 36.5567 73.4102 33.3915 73.4102 29.4871C73.4102 25.5826 70.245 22.4175 66.3406 22.4175C62.4362 22.4175 59.271 25.5826 59.271 29.4871C59.271 33.3915 62.4362 36.5567 66.3406 36.5567Z" stroke="#E9F5FF" stroke-width="1.10118" stroke-miterlimit="10"/>
<path d="M27.623 121.403C46.6184 102.837 74.5885 82.124 107.58 63.2497C176.503 23.8164 241.263 7.36472 252.209 26.5033" stroke="#E9F5FF" stroke-width="1.10118" stroke-miterlimit="10"/>
<path d="M2.58218 169.282C-2.17493 160.968 4.01372 147.292 18.208 131.248" stroke="#E9F5FF" stroke-width="1.10118" stroke-miterlimit="10"/>
<path opacity="0.16" d="M123.58 188.64C116.632 172.64 105.212 158.787 90.6657 148.921L90.3133 148.679L89.4764 148.194L88.9258 147.93C86.9217 147.005 84.9506 145.97 83.0235 144.824L75.2161 139.451C63.6647 130.278 55.3177 117.592 51.4746 103.244C41.6631 66.5084 63.5656 28.6387 100.301 18.8272C137.036 9.01563 174.906 30.9181 184.718 67.6536C189.001 83.6868 187.361 100.722 180.093 115.632C179.091 117.702 177.967 119.728 176.756 121.7L171.658 130.883C165.37 145.617 163.024 161.772 164.808 177.618L123.58 188.629V188.64Z" fill="black"/>
<path d="M130.639 164.811C130.639 164.811 105.201 118.253 93.5068 106.394C87.6375 100.447 83.6292 100.712 81.0965 102.452C78.5638 104.191 79.5108 108.057 82.451 108.684C94.0134 111.151 124.461 114.08 158.741 88.4995C162.254 85.8787 158.642 80.3067 154.931 82.6192C152.993 83.8305 151.154 86.4073 149.865 91.3296C145.637 107.44 146.804 160.484 146.804 160.484" stroke="#E9F5FF" stroke-width="1.10118" stroke-miterlimit="10"/>
<path d="M142.996 200.049L153.646 197.206L154.518 200.472C155.302 203.408 153.555 206.428 150.619 207.212C147.682 207.996 144.663 206.249 143.879 203.313L143.007 200.046L142.996 200.049Z" fill="url(#paint0_linear_970_2380)"/>
<path opacity="0.8" d="M98.3631 11.5491C58.1369 22.2967 34.2523 63.613 44.9888 103.828C49.8671 122.086 61.033 136.963 75.5246 146.774H75.5356C78.8502 149.021 82.3299 151.003 85.9528 152.677L86.0079 152.71C100.026 162.224 110.917 176.462 116.015 193.916L173.981 178.433C169.698 160.77 172.043 142.997 179.443 127.757C179.443 127.757 179.443 127.746 179.443 127.735C181.756 124.453 183.804 120.985 185.566 117.373C193.241 101.637 195.498 83.17 190.631 64.9234C179.895 24.7083 138.578 0.812602 98.3631 11.5491Z" fill="url(#paint1_radial_970_2380)"/>
<path d="M162.1 198.661L135.363 205.797C126.532 208.154 117.238 204.156 112.877 196.118L102.856 177.64C101.546 175.228 102.834 172.222 105.488 171.517L171.724 153.821C174.444 153.095 177.098 155.165 177.065 157.973L176.768 179.798C176.646 188.652 170.656 196.349 162.1 198.639V198.661Z" fill="url(#paint2_linear_970_2380)"/>
<path d="M203.14 95.25C187.217 107.737 168.233 120.511 147.2 132.547C78.2773 171.969 13.5278 188.421 2.58203 169.282" stroke="#E9F5FF" stroke-width="1.10118" stroke-miterlimit="10"/>
<path d="M252.209 26.5029C258.123 36.832 247.133 55.42 224.933 76.5517" stroke="#E9F5FF" stroke-width="1.10118" stroke-miterlimit="10"/>
<path d="M259.003 119.718L248.575 124.585L258.001 131.193L259.003 119.718Z" stroke="#E9F5FF" stroke-width="1.10118" stroke-miterlimit="10"/>
<path d="M79.1801 189.93L67.8159 188.102L71.9013 198.86L79.1801 189.93Z" stroke="#E9F5FF" stroke-width="1.10118" stroke-miterlimit="10"/>
<path d="M215.727 92.2769C219.631 92.2769 222.796 89.1117 222.796 85.2073C222.796 81.3029 219.631 78.1377 215.727 78.1377C211.822 78.1377 208.657 81.3029 208.657 85.2073C208.657 89.1117 211.822 92.2769 215.727 92.2769Z" stroke="#E9F5FF" stroke-width="1.10118" stroke-miterlimit="10"/>
<path d="M9.59645 83.6104C13.5009 83.6104 16.666 80.4452 16.666 76.5408C16.666 72.6364 13.5009 69.4712 9.59645 69.4712C5.69202 69.4712 2.52686 72.6364 2.52686 76.5408C2.52686 80.4452 5.69202 83.6104 9.59645 83.6104Z" stroke="#E9F5FF" stroke-width="1.10118" stroke-miterlimit="10"/>
<path d="M26.0917 117.482L22.2266 121.403" stroke="#E9F5FF" stroke-width="1.10118" stroke-miterlimit="10"/>
<path d="M18.2074 125.488L14.3423 129.408" stroke="#E9F5FF" stroke-width="1.10118" stroke-miterlimit="10"/>
<path d="M26.18 129.32L22.2598 125.455" stroke="#E9F5FF" stroke-width="1.10118" stroke-miterlimit="10"/>
<path d="M18.1746 121.425L14.2544 117.56" stroke="#E9F5FF" stroke-width="1.10118" stroke-miterlimit="10"/>
<path d="M207.964 144.308L204.109 148.228" stroke="#E9F5FF" stroke-width="1.10118" stroke-miterlimit="10"/>
<path d="M200.079 152.313L196.214 156.234" stroke="#E9F5FF" stroke-width="1.10118" stroke-miterlimit="10"/>
<path d="M208.052 156.145L204.132 152.28" stroke="#E9F5FF" stroke-width="1.10118" stroke-miterlimit="10"/>
<path d="M200.046 148.25L196.126 144.396" stroke="#E9F5FF" stroke-width="1.10118" stroke-miterlimit="10"/>
<path d="M188.913 1L185.048 4.92021" stroke="#E9F5FF" stroke-width="1.10118" stroke-miterlimit="10"/>
<path d="M181.017 9.00537L177.152 12.9256" stroke="#E9F5FF" stroke-width="1.10118" stroke-miterlimit="10"/>
<path d="M189.001 12.8375L185.07 8.9834" stroke="#E9F5FF" stroke-width="1.10118" stroke-miterlimit="10"/>
<path d="M180.985 4.95304L177.064 1.08789" stroke="#E9F5FF" stroke-width="1.10118" stroke-miterlimit="10"/>
<mask id="mask0_970_2380" style="mask-type:luminance" maskUnits="userSpaceOnUse" x="42" y="8" width="152" height="186">
<path d="M98.3631 11.5491C58.1369 22.2967 34.2523 63.613 44.9888 103.828C49.8671 122.086 61.033 136.963 75.5246 146.774H75.5356C78.8502 149.021 82.3299 151.003 85.9528 152.677L86.0079 152.71C100.026 162.224 110.917 176.462 116.015 193.916L173.981 178.433C169.698 160.77 172.043 142.997 179.443 127.757C179.443 127.757 179.443 127.746 179.443 127.735C181.756 124.453 183.804 120.985 185.566 117.373C193.241 101.637 195.498 83.17 190.631 64.9234C179.895 24.7083 138.578 0.812602 98.3631 11.5491Z" fill="white"/>
</mask>
<g mask="url(#mask0_970_2380)">
<path opacity="0.1" d="M201.566 86.4404C185.643 98.9278 166.658 111.702 145.626 123.737C76.6918 163.16 11.9423 179.611 0.996582 160.473" stroke="black" stroke-width="3.30355" stroke-miterlimit="10"/>
</g>
<defs>
<linearGradient id="paint0_linear_970_2380" x1="166.206" y1="192.211" x2="142.13" y2="206.538" gradientUnits="userSpaceOnUse">
<stop offset="0.52" stop-color="#01A5E3"/>
<stop offset="0.84" stop-color="#014FA9"/>
<stop offset="0.96" stop-color="#014DA7"/>
<stop offset="1" stop-color="#0148A5"/>
</linearGradient>
<radialGradient id="paint1_radial_970_2380" cx="0" cy="0" r="1" gradientUnits="userSpaceOnUse" gradientTransform="translate(189.746 -18.8975) rotate(-14.95) scale(346.267 346.267)">
<stop offset="0.07" stop-color="#01A5E3"/>
<stop offset="0.16" stop-color="#019CDD"/>
<stop offset="0.3" stop-color="#0186CE"/>
<stop offset="0.47" stop-color="#0162B6"/>
<stop offset="0.54" stop-color="#014FA9"/>
<stop offset="0.67" stop-color="#0148A5"/>
</radialGradient>
<linearGradient id="paint2_linear_970_2380" x1="251.97" y1="115.107" x2="97.518" y2="206.999" gradientUnits="userSpaceOnUse">
<stop offset="0.52" stop-color="#01A5E3"/>
<stop offset="0.84" stop-color="#014FA9"/>
<stop offset="0.96" stop-color="#014DA7"/>
<stop offset="1" stop-color="#0148A5"/>
</linearGradient>
</defs>
</svg>
