<svg width="4571" height="2571" viewBox="0 0 4571 2571" fill="none" xmlns="http://www.w3.org/2000/svg">
<g clip-path="url(#clip0_970_2443)">
<rect width="4570.67" height="2571" fill="#A1A5B7"/>
<rect x="-222.186" y="-66.6553" width="4888.07" height="2745.57" fill="url(#paint0_linear_970_2443)"/>
<path d="M4917.65 -1688.2C4738.64 -1627.28 4385.58 -1361.92 4405.43 -787.87C4430.25 -70.3107 4971.81 378.728 5107.2 1055.67C5207.12 1555.31 5192.94 2806.7 4583.7 3332.46" stroke="white" stroke-width="3.17407"/>
<path d="M4641.77 -1615.47C4462.76 -1554.54 4109.69 -1289.18 4129.55 -715.133C4154.37 2.42664 4695.93 451.466 4831.32 1128.41C4931.24 1628.04 4917.06 2879.43 4307.81 3405.19" stroke="white" stroke-width="3.17407"/>
<path d="M4362.36 -1557.75C4183.35 -1496.83 3830.29 -1231.46 3850.14 -657.416C3874.96 60.1439 4416.52 509.183 4551.91 1186.13C4651.83 1685.76 4637.65 2937.15 4028.41 3462.91" stroke="white" stroke-width="3.17407"/>
<path d="M4079.85 -1517.91C3900.84 -1456.98 3547.77 -1191.62 3567.63 -617.573C3592.45 99.9862 4134.01 549.025 4269.39 1225.97C4369.32 1725.6 4355.14 2976.99 3745.89 3502.75" stroke="white" stroke-width="3.17407"/>
<path d="M3795.14 -1499.53C3616.12 -1438.6 3263.06 -1173.24 3282.91 -599.191C3307.74 118.369 3849.29 567.408 3984.68 1244.35C4084.61 1743.99 4070.43 2995.38 3461.18 3521.14" stroke="white" stroke-width="3.17407"/>
<path d="M3509.92 -1507C3330.91 -1446.08 2977.85 -1180.72 2997.7 -606.669C3022.52 110.891 3564.08 559.929 3699.47 1236.87C3799.39 1736.51 3785.21 2987.9 3175.96 3513.66" stroke="white" stroke-width="3.17407"/>
<path d="M3227.21 -1545.43C3048.2 -1484.51 2695.14 -1219.14 2714.99 -645.096C2739.81 72.464 3281.37 521.503 3416.76 1198.45C3516.68 1698.08 3502.5 2949.47 2893.25 3475.23" stroke="white" stroke-width="3.17407"/>
<path d="M2951.81 -1619.98C2772.8 -1559.05 2419.74 -1293.69 2439.59 -719.644C2464.41 -2.08484 3005.97 446.954 3141.36 1123.9C3241.28 1623.53 3227.1 2874.92 2617.85 3400.68" stroke="white" stroke-width="3.17407"/>
<path d="M2643.16 -1754.69C2464.14 -1693.76 2111.08 -1428.4 2130.94 -854.355C2155.76 -136.796 2697.31 312.243 2832.7 989.186C2932.63 1488.82 2918.45 2740.21 2309.2 3265.97" stroke="white" stroke-width="3.17407"/>
<path d="M2378.71 -1861.78C2199.7 -1800.86 1846.64 -1535.5 1866.49 -961.448C1891.31 -243.888 2432.87 205.151 2568.26 882.094C2668.18 1381.73 2654 2633.12 2044.75 3158.88" stroke="white" stroke-width="3.17407"/>
<path d="M2106.32 -1946.66C1927.31 -1885.73 1574.25 -1620.37 1594.1 -1046.32C1618.92 -328.765 2160.48 120.274 2295.87 797.217C2395.79 1296.85 2381.61 2548.24 1772.36 3074" stroke="white" stroke-width="3.17407"/>
<path d="M1827.86 -2008.8C1648.85 -1947.87 1295.79 -1682.51 1315.64 -1108.46C1340.46 -390.904 1882.02 58.1345 2017.41 735.078C2117.33 1234.71 2103.15 2486.1 1493.9 3011.86" stroke="white" stroke-width="3.17407"/>
<path d="M1545.29 -2048.21C1366.27 -1987.28 1013.21 -1721.92 1033.07 -1147.87C1057.89 -430.314 1599.44 18.7253 1734.83 695.668C1834.76 1195.3 1820.58 2446.69 1211.33 2972.45" stroke="white" stroke-width="3.17407"/>
<path d="M1260.5 -2065.38C1081.48 -2004.46 728.42 -1739.09 748.277 -1165.05C773.099 -447.486 1314.65 1.55294 1450.04 678.496C1549.97 1178.13 1535.79 2429.52 926.539 2955.28" stroke="white" stroke-width="3.17407"/>
<path d="M975.217 -2061.2C796.203 -2000.27 443.14 -1734.91 462.997 -1160.86C487.818 -443.304 1029.37 5.73458 1164.76 682.678C1264.69 1182.31 1250.51 2433.7 641.259 2959.46" stroke="white" stroke-width="3.17407"/>
<path d="M690.955 -2036.79C511.942 -1975.86 158.878 -1710.5 178.735 -1136.45C203.557 -418.894 745.111 30.1445 880.5 707.088C980.427 1206.72 966.246 2458.11 356.997 2983.87" stroke="white" stroke-width="3.17407"/>
<path d="M408.966 -1993.4C229.952 -1932.47 -123.111 -1667.11 -103.254 -1093.07C-78.4327 -375.505 463.122 73.5334 598.51 750.476C698.437 1250.11 684.256 2501.5 75.0078 3027.26" stroke="white" stroke-width="3.17407"/>
<path d="M130.28 -1932.28C-48.7337 -1871.36 -401.797 -1606 -381.94 -1031.95C-357.119 -314.389 184.436 134.65 319.824 811.593C419.751 1311.23 405.57 2562.62 -203.678 3088.38" stroke="white" stroke-width="3.17407"/>
<path d="M-144.25 -1854.59C-323.263 -1793.66 -676.327 -1528.3 -656.47 -954.255C-631.649 -236.695 -90.094 212.344 45.2946 889.287C145.221 1388.92 131.041 2640.31 -478.208 3166.07" stroke="white" stroke-width="3.17407"/>
</g>
<defs>
<linearGradient id="paint0_linear_970_2443" x1="2098.06" y1="172.987" x2="4461.16" y2="2707.49" gradientUnits="userSpaceOnUse">
<stop stop-color="#E4E4E4"/>
<stop offset="1" stop-color="#DFDFDF" stop-opacity="0"/>
</linearGradient>
<clipPath id="clip0_970_2443">
<rect width="4570.67" height="2571" fill="white"/>
</clipPath>
</defs>
</svg>
