<svg width="1440" height="810" viewBox="0 0 1440 810" fill="none" xmlns="http://www.w3.org/2000/svg">
<g clip-path="url(#clip0_970_2443)">
<rect width="1440" height="810" fill="#A1A5B7"/>
<rect x="-70" y="-21" width="1540" height="865" fill="url(#paint0_linear_970_2443)"/>
<path d="M1549.32 -531.873C1492.92 -512.679 1381.69 -429.076 1387.94 -248.22C1395.76 -22.1515 1566.38 119.319 1609.04 332.592C1640.52 490.003 1636.05 884.257 1444.1 1049.9" stroke="white"/>
<path d="M1462.4 -508.957C1406 -489.762 1294.77 -406.16 1301.03 -225.304C1308.85 0.764515 1479.46 142.235 1522.12 355.508C1553.6 512.919 1549.13 907.173 1357.19 1072.81" stroke="white"/>
<path d="M1374.37 -490.773C1317.97 -471.578 1206.74 -387.976 1213 -207.12C1220.82 18.9486 1391.44 160.419 1434.09 373.692C1465.57 531.103 1461.1 925.357 1269.16 1091" stroke="white"/>
<path d="M1285.37 -478.221C1228.97 -459.026 1117.73 -375.423 1123.99 -194.568C1131.81 31.5008 1302.43 172.972 1345.08 386.244C1376.57 543.655 1372.1 937.909 1180.15 1103.55" stroke="white"/>
<path d="M1195.67 -472.429C1139.27 -453.235 1028.03 -369.632 1034.29 -188.777C1042.11 37.2923 1212.73 178.763 1255.38 392.036C1286.87 549.447 1282.4 943.701 1090.45 1109.34" stroke="white"/>
<path d="M1105.81 -474.785C1049.41 -455.591 938.178 -371.988 944.434 -191.133C952.254 34.9364 1122.87 176.407 1165.53 389.68C1197.01 547.091 1192.54 941.345 1000.6 1106.99" stroke="white"/>
<path d="M1016.74 -486.892C960.343 -467.697 849.109 -384.094 855.365 -203.239C863.185 22.8299 1033.8 164.301 1076.46 377.573C1107.94 534.985 1103.47 929.239 911.527 1094.88" stroke="white"/>
<path d="M929.976 -510.378C873.577 -491.184 762.344 -407.581 768.6 -226.726C776.42 -0.656872 947.038 140.814 989.692 354.087C1021.17 511.498 1016.71 905.752 824.762 1071.39" stroke="white"/>
<path d="M832.734 -552.819C776.335 -533.625 665.102 -450.022 671.358 -269.167C679.178 -43.0978 849.796 98.373 892.45 311.646C923.933 469.057 919.465 863.311 727.52 1028.95" stroke="white"/>
<path d="M749.419 -586.559C693.021 -567.365 581.787 -483.762 588.043 -302.907C595.863 -76.8375 766.481 64.6333 809.136 277.906C840.618 435.317 836.15 829.571 644.205 995.213" stroke="white"/>
<path d="M663.602 -613.3C607.203 -594.105 495.97 -510.502 502.226 -329.647C510.046 -103.578 680.664 37.8926 723.318 251.165C754.801 408.576 750.333 802.83 558.388 968.472" stroke="white"/>
<path d="M575.873 -632.877C519.474 -613.682 408.24 -530.08 414.496 -349.224C422.316 -123.155 592.934 18.3154 635.589 231.588C667.071 388.999 662.604 783.253 470.658 948.895" stroke="white"/>
<path d="M486.846 -645.293C430.447 -626.098 319.214 -542.496 325.47 -361.64C333.29 -135.571 503.908 5.89941 546.563 219.172C578.045 376.583 573.577 770.837 381.632 936.479" stroke="white"/>
<path d="M397.123 -650.703C340.724 -631.509 229.49 -547.906 235.746 -367.051C243.566 -140.982 414.184 0.489254 456.839 213.762C488.321 371.173 483.854 765.427 291.908 931.069" stroke="white"/>
<path d="M307.245 -649.386C250.846 -630.191 139.612 -546.588 145.868 -365.733C153.688 -139.664 324.307 1.80664 366.961 215.079C398.443 372.49 393.976 766.744 202.03 932.386" stroke="white"/>
<path d="M217.687 -641.695C161.288 -622.501 50.0548 -538.898 56.3108 -358.043C64.1308 -131.974 234.749 9.49707 277.403 222.77C308.886 380.181 304.418 774.435 112.473 940.077" stroke="white"/>
<path d="M128.846 -628.025C72.447 -608.831 -38.7865 -525.228 -32.5305 -344.373C-24.7105 -118.304 145.908 23.167 188.562 236.44C220.044 393.851 215.577 788.105 23.6313 953.746" stroke="white"/>
<path d="M41.045 -608.771C-15.3538 -589.576 -126.587 -505.973 -120.331 -325.118C-112.511 -99.049 58.1068 42.4219 100.761 255.694C132.244 413.106 127.776 807.36 -64.1695 973.001" stroke="white"/>
<path d="M-45.4462 -584.293C-101.845 -565.098 -213.078 -481.496 -206.822 -300.64C-199.003 -74.5714 -28.3844 66.8994 14.2701 280.172C45.7524 437.583 41.2847 831.837 -150.661 997.479" stroke="white"/>
</g>
<defs>
<linearGradient id="paint0_linear_970_2443" x1="661" y1="54.5" x2="1405.5" y2="853" gradientUnits="userSpaceOnUse">
<stop stop-color="#E4E4E4"/>
<stop offset="1" stop-color="#DFDFDF" stop-opacity="0"/>
</linearGradient>
<clipPath id="clip0_970_2443">
<rect width="1440" height="810" fill="white"/>
</clipPath>
</defs>
</svg>
