<svg width="130" height="146" viewBox="0 0 130 146" fill="none" xmlns="http://www.w3.org/2000/svg">
<g clip-path="url(#clip0_262_1710)">
<path d="M123.862 11.2543C126.97 11.2543 129.489 8.73493 129.489 5.62714C129.489 2.51936 126.97 0 123.862 0C120.754 0 118.235 2.51936 118.235 5.62714C118.235 8.73493 120.754 11.2543 123.862 11.2543Z" fill="#D3D3D3"/>
<path d="M5.62714 11.2543C8.73493 11.2543 11.2543 8.73493 11.2543 5.62714C11.2543 2.51936 8.73493 0 5.62714 0C2.51936 0 0 2.51936 0 5.62714C0 8.73493 2.51936 11.2543 5.62714 11.2543Z" fill="#D3D3D3"/>
<path d="M113.226 97.1252C113.226 123.713 91.6737 145.265 65.0862 145.265C38.4988 145.265 16.9465 123.713 16.9465 97.1252C16.9465 93.5668 17.3304 90.6003 18.0655 88.1348H112.107C112.842 90.6003 113.226 93.5668 113.226 97.1252Z" fill="#D3D3D3"/>
<path opacity="0.6" d="M8.63269 9.83594L18.5664 88.1345H96.6893L8.63269 9.83594Z" fill="#353535"/>
<path opacity="0.6" d="M123.016 9.83594L112.244 88.1345H34.1206L123.016 9.83594Z" fill="#353535"/>
<path d="M81.5968 95.2192V112.01" stroke="#F9F9F9" stroke-width="2.76478" stroke-miterlimit="10"/>
<path d="M89.9888 103.618H73.205" stroke="#F9F9F9" stroke-width="2.76478" stroke-miterlimit="10"/>
<path d="M48.5822 95.2192V112.01" stroke="#F9F9F9" stroke-width="2.76478" stroke-miterlimit="10"/>
<path d="M56.9741 103.618H40.1837" stroke="#F9F9F9" stroke-width="2.76478" stroke-miterlimit="10"/>
<path d="M65.0863 126.301C70.3893 126.301 74.6882 122.003 74.6882 116.7C74.6882 111.397 70.3893 107.098 65.0863 107.098C59.7833 107.098 55.4844 111.397 55.4844 116.7C55.4844 122.003 59.7833 126.301 65.0863 126.301Z" fill="#F9F9F9"/>
<path d="M83.2231 123.413C83.2231 131.675 75.1044 138.375 65.0862 138.375C55.0679 138.375 46.9492 131.675 46.9492 123.413" stroke="#F9F9F9" stroke-width="2.76478" stroke-miterlimit="10"/>
</g>
<defs>
<clipPath id="clip0_262_1710">
<rect width="129.489" height="145.265" fill="white"/>
</clipPath>
</defs>
</svg>
