<svg width="145" height="117" viewBox="0 0 145 117" fill="none" xmlns="http://www.w3.org/2000/svg">
<path opacity="0.6" d="M15.2485 19.0796L25.1822 97.3782H103.305L15.2485 19.0796Z" fill="#353535"/>
<path opacity="0.6" d="M129.632 19.0796L118.86 97.3782H40.7366L129.632 19.0796Z" fill="#353535"/>
<path d="M129.632 97.3784H15.2485V116.263H129.632V97.3784Z" fill="#D3D3D3"/>
<path d="M19.8999 16.4061L16.0097 15.7556L17.8637 14.435L8.2488 0.962402L0 6.84976L9.61493 20.3224L11.6771 18.8522L11.2348 22.5927L19.8999 16.4061Z" fill="#D3D3D3"/>
<path d="M125.072 16.4061L128.962 15.7556L127.102 14.435L136.723 0.962402L144.972 6.84976L135.351 20.3224L133.288 18.8522L133.731 22.5927L125.072 16.4061Z" fill="#D3D3D3"/>
<path d="M139.95 8.74268V116.263" stroke="#D3D3D3" stroke-width="5.52956" stroke-miterlimit="10"/>
<path d="M4.93103 8.74268V116.263" stroke="#D3D3D3" stroke-width="5.52956" stroke-miterlimit="10"/>
<path d="M35.8836 97.3784C35.8836 101.418 32.6114 104.69 28.5716 104.69C24.5317 104.69 21.2595 101.418 21.2595 97.3784" stroke="#F9F9F9" stroke-width="2.76478" stroke-miterlimit="10"/>
<path d="M50.5076 97.3784C50.5076 101.418 47.2354 104.69 43.1956 104.69C39.1557 104.69 35.8835 101.418 35.8835 97.3784" stroke="#F9F9F9" stroke-width="2.76478" stroke-miterlimit="10"/>
<path d="M65.1316 97.3784C65.1316 101.418 61.8594 104.69 57.8196 104.69C53.7798 104.69 50.5076 101.418 50.5076 97.3784" stroke="#F9F9F9" stroke-width="2.76478" stroke-miterlimit="10"/>
<path d="M79.7493 97.3784C79.7493 101.418 76.4771 104.69 72.4373 104.69C68.3974 104.69 65.1252 101.418 65.1252 97.3784" stroke="#F9F9F9" stroke-width="2.76478" stroke-miterlimit="10"/>
<path d="M94.3733 97.3784C94.3733 101.418 91.1011 104.69 87.0613 104.69C83.0215 104.69 79.7493 101.418 79.7493 97.3784" stroke="#F9F9F9" stroke-width="2.76478" stroke-miterlimit="10"/>
<path d="M108.997 97.3784C108.997 101.418 105.725 104.69 101.685 104.69C97.6455 104.69 94.3733 101.418 94.3733 97.3784" stroke="#F9F9F9" stroke-width="2.76478" stroke-miterlimit="10"/>
<path d="M123.621 97.3784C123.621 101.418 120.349 104.69 116.309 104.69C112.27 104.69 108.997 101.418 108.997 97.3784" stroke="#F9F9F9" stroke-width="2.76478" stroke-miterlimit="10"/>
</svg>
