<svg width="179" height="68" viewBox="0 0 179 68" fill="none" xmlns="http://www.w3.org/2000/svg">
<g clip-path="url(#clip0_262_1758)">
<g opacity="0.6">
<path d="M39.7543 66.1658L25.0522 25.839L14.1947 66.1658L0 63.2579L16.8944 0.507118L30.9395 0.0322266L53.6497 62.3146L39.7543 66.1658Z" fill="#353535"/>
<path d="M92.3762 67.5643L62.2823 67.0114L55.9656 57.7347L81.9611 13.9861L63.5769 13.6479L63.8827 0.942871L93.9765 1.49583L100.293 10.766L74.2978 54.5211L92.6819 54.8593L92.3762 67.5643Z" fill="#353535"/>
<path d="M133.497 67.6818L131.558 4.09837L145.466 1.28155L162.569 33.7303L161.574 1.16445L176.146 0.826172L178.084 64.4031L164.176 67.2264L147.073 34.7777L148.069 67.3435L133.497 67.6818Z" fill="#353535"/>
<path d="M117.754 67.4797L103.201 66.738L107.605 1.02734L122.158 1.76896L117.754 67.4797Z" fill="#353535"/>
</g>
</g>
<defs>
<clipPath id="clip0_262_1758">
<rect width="178.084" height="67.6493" fill="white" transform="translate(0 0.0322266)"/>
</clipPath>
</defs>
</svg>
