<svg width="24" height="24" viewBox="0 0 24 24" fill="none" xmlns="http://www.w3.org/2000/svg">
<g clip-path="url(#clip0_63_16)">
<path d="M4.61719 1.87399e-06H19.6328C20.1736 -0.000520923 20.7092 0.108347 21.209 0.320375C21.7087 0.532403 22.1628 0.843429 22.5452 1.23565C22.9277 1.62788 23.2309 2.0936 23.4376 2.60616C23.6444 3.11873 23.7505 3.66807 23.75 4.22276V19.0272C23.7505 19.5819 23.6444 20.1313 23.4376 20.6438C23.2309 21.1564 22.9277 21.6221 22.5452 22.0143C22.1628 22.4066 21.7087 22.7176 21.209 22.9296C20.7092 23.1417 20.1736 23.2505 19.6328 23.25H4.61719C4.07637 23.2505 3.54076 23.1417 3.04101 22.9296C2.54126 22.7176 2.08718 22.4066 1.70476 22.0143C1.32234 21.6221 1.01909 21.1564 0.812366 20.6438C0.605638 20.1313 0.499492 19.5819 0.500002 19.0272V4.22276C0.499492 3.66807 0.605638 3.11873 0.812366 2.60616C1.01909 2.0936 1.32234 1.62788 1.70476 1.23565C2.08718 0.843429 2.54126 0.532403 3.04101 0.320375C3.54076 0.108347 4.07637 -0.000520923 4.61719 1.87399e-06Z" fill="#00005B"/>
<path d="M9.83944 13.9103H6.23569L5.49944 16.2552C5.49121 16.2977 5.46777 16.3356 5.43371 16.3613C5.39966 16.3871 5.35745 16.3988 5.31538 16.3943H3.49413C3.38757 16.3943 3.3585 16.3347 3.38757 16.2154L6.50694 7.04459C6.536 6.94523 6.56507 6.8558 6.60382 6.73657C6.6428 6.52363 6.66226 6.30741 6.66194 6.09074C6.65904 6.06586 6.66541 6.04077 6.67978 6.0205C6.69416 6.00023 6.71547 5.98628 6.73944 5.98145H9.2485C9.31632 5.98145 9.36475 6.01125 9.37444 6.06093L12.9104 16.2452C12.9394 16.3545 12.9104 16.4042 12.8135 16.4042H10.7888C10.7546 16.4076 10.7203 16.3985 10.6919 16.3785C10.6636 16.3585 10.643 16.3289 10.6338 16.2949L9.83944 13.9103ZM6.79757 11.933H9.25819C9.20007 11.7244 9.12257 11.476 9.03538 11.2177C8.94819 10.9593 8.861 10.6613 8.77382 10.3632C8.68663 10.0651 8.58975 9.75709 8.49288 9.44907C8.396 9.14106 8.30882 8.85292 8.23132 8.56478C8.15382 8.27664 8.086 8.02824 8.01819 7.78978H7.99882C7.91175 8.22283 7.8018 8.6507 7.66944 9.07151C7.52413 9.54843 7.37882 10.0452 7.22382 10.542C7.09788 11.0488 6.94288 11.5157 6.79757 11.933Z" fill="#9999FF"/>
<path d="M18.6548 12.996H15.5839C15.6205 13.3096 15.723 13.6113 15.8842 13.8803C16.0554 14.1481 16.3021 14.3561 16.5914 14.4765C16.983 14.6482 17.4056 14.7329 17.8314 14.7249C18.1697 14.7185 18.5068 14.6819 18.8389 14.6156C19.1343 14.5759 19.4239 14.4991 19.7011 14.387C19.7495 14.3473 19.7786 14.3672 19.7786 14.4665V15.9867C19.7769 16.0271 19.7704 16.0672 19.7592 16.1059C19.7417 16.1338 19.7186 16.1575 19.6914 16.1755C19.3816 16.315 19.0562 16.4152 18.7226 16.4736C18.2695 16.563 17.8084 16.6029 17.347 16.5928C16.6108 16.5928 15.9908 16.4736 15.487 16.245C15.013 16.034 14.5946 15.7105 14.2664 15.3011C13.9597 14.9184 13.7322 14.4755 13.598 13.9995C13.3141 13.0083 13.3276 11.9524 13.6367 10.9691C13.7912 10.4716 14.0379 10.0094 14.3633 9.60787C14.6836 9.21082 15.0834 8.88893 15.5355 8.66396C15.9908 8.43543 16.5333 8.35595 17.1533 8.35595C17.6698 8.34365 18.1826 8.44884 18.6548 8.66396C19.0517 8.84042 19.4008 9.11322 19.672 9.45883C19.9295 9.79819 20.1263 10.1817 20.2533 10.5915C20.3765 10.9831 20.4386 11.3922 20.4373 11.8037C20.4373 12.0422 20.4276 12.2508 20.418 12.4396C20.4083 12.6284 20.3889 12.7675 20.3792 12.8569C20.3749 12.8913 20.359 12.9231 20.3342 12.9467C20.3094 12.9703 20.2774 12.9843 20.2436 12.9861C20.1855 12.9861 20.0789 12.996 19.9239 13.0059C19.7374 13.0277 19.5497 13.0376 19.362 13.0358C19.1392 13.0358 18.9067 12.996 18.6548 12.996ZM15.5839 11.5454H17.628C17.8798 11.5454 18.0639 11.5454 18.1801 11.5354C18.2598 11.5286 18.3364 11.5013 18.403 11.4559V11.3566C18.4033 11.2316 18.3837 11.1074 18.3448 10.989C18.26 10.7171 18.0913 10.4809 17.8641 10.316C17.637 10.1511 17.3636 10.0665 17.0855 10.0749C16.8225 10.0597 16.561 10.123 16.3324 10.257C16.1037 10.391 15.9178 10.59 15.797 10.83C15.684 11.0531 15.6118 11.2956 15.5839 11.5454Z" fill="#9999FF"/>
</g>
<defs>
<clipPath id="clip0_63_16">
<rect width="23.25" height="23.25" fill="white" transform="translate(0.5)"/>
</clipPath>
</defs>
</svg>
