<svg width="24" height="24" viewBox="0 0 24 24" fill="none" xmlns="http://www.w3.org/2000/svg">
<path d="M4.11719 1.87399e-06H19.1328C19.6736 -0.000520923 20.2092 0.108347 20.709 0.320375C21.2087 0.532403 21.6628 0.843429 22.0452 1.23565C22.4277 1.62788 22.7309 2.0936 22.9376 2.60616C23.1444 3.11873 23.2505 3.66807 23.25 4.22276V19.0272C23.2505 19.5819 23.1444 20.1313 22.9376 20.6438C22.7309 21.1564 22.4277 21.6221 22.0452 22.0143C21.6628 22.4066 21.2087 22.7176 20.709 22.9296C20.2092 23.1417 19.6736 23.2505 19.1328 23.25H4.11719C3.57637 23.2505 3.04076 23.1417 2.54101 22.9296C2.04126 22.7176 1.58718 22.4066 1.20476 22.0143C0.822344 21.6221 0.519093 21.1564 0.312366 20.6438C0.105638 20.1313 -0.0005079 19.5819 1.82714e-06 19.0272V4.22276C-0.0005079 3.66807 0.105638 3.11873 0.312366 2.60616C0.519093 2.0936 0.822344 1.62788 1.20476 1.23565C1.58718 0.843429 2.04126 0.532403 2.54101 0.320375C3.04076 0.108347 3.57637 -0.000520923 4.11719 1.87399e-06Z" fill="#330000"/>
<path d="M11.2662 13.9501H7.66245L6.9262 16.285C6.91797 16.3276 6.89453 16.3654 6.86047 16.3912C6.82641 16.4169 6.78421 16.4286 6.74214 16.4241H4.92089C4.81432 16.4241 4.78526 16.3645 4.81432 16.2452L7.9337 7.03467C7.96276 6.93531 7.99182 6.82602 8.03057 6.70679C8.06956 6.49384 8.08902 6.27762 8.0887 6.06095C8.0858 6.03607 8.09217 6.01098 8.10654 5.99071C8.12091 5.97044 8.14222 5.9565 8.1662 5.95166H10.6753C10.7528 5.95166 10.7915 5.98147 10.8012 6.03115L14.3371 16.2651C14.3662 16.3744 14.3371 16.4241 14.2403 16.4241H12.2156C12.1813 16.4275 12.147 16.4184 12.1187 16.3984C12.0903 16.3784 12.0698 16.3488 12.0606 16.3148L11.2662 13.9501ZM8.22432 11.9331H10.6849C10.6268 11.7244 10.5493 11.476 10.4621 11.2177C10.3749 10.9594 10.2878 10.6613 10.2006 10.3632C10.1134 10.0651 10.0165 9.75711 9.91964 9.4491C9.82276 9.14108 9.73557 8.85294 9.65807 8.5648C9.58057 8.27666 9.51276 8.02826 9.44495 7.7898H9.42557C9.33851 8.22285 9.22856 8.65073 9.0962 9.07153C8.95089 9.54846 8.80557 10.0452 8.65057 10.542C8.51495 11.0488 8.36964 11.5158 8.22432 11.9331Z" fill="#FF9A00"/>
<path d="M16.4491 7.65069C16.2901 7.65426 16.132 7.62535 15.984 7.56565C15.836 7.50594 15.701 7.41664 15.5869 7.30293C15.365 7.05403 15.2468 6.72595 15.2576 6.38883C15.2518 6.22457 15.2799 6.06092 15.34 5.90855C15.4001 5.75618 15.4909 5.61852 15.6063 5.50453C15.8392 5.27881 16.1481 5.15419 16.4685 5.15678C16.8463 5.15678 17.1369 5.27601 17.3501 5.50453C17.5647 5.74545 17.6793 6.06264 17.6697 6.38883C17.6757 6.5567 17.6487 6.72409 17.5905 6.88109C17.5322 7.0381 17.4439 7.18154 17.3307 7.30293C17.2165 7.42218 17.0788 7.51493 16.9267 7.57493C16.7746 7.63492 16.6118 7.66075 16.4491 7.65069ZM15.3641 16.275V8.62441C15.3641 8.52505 15.4029 8.4853 15.4901 8.4853H17.4082C17.4954 8.4853 17.5341 8.53498 17.5341 8.62441V16.275C17.5341 16.3843 17.4954 16.434 17.4082 16.434H15.5094C15.4891 16.4357 15.4686 16.4327 15.4495 16.4252C15.4305 16.4177 15.4133 16.4058 15.3993 16.3905C15.3854 16.3752 15.375 16.3569 15.3689 16.3369C15.3628 16.3169 15.3611 16.2958 15.3641 16.275Z" fill="#FF9A00"/>
</svg>
