<svg width="24" height="24" viewBox="0 0 24 24" fill="none" xmlns="http://www.w3.org/2000/svg">
<g clip-path="url(#clip0_63_41)">
<path d="M4.11719 1.87399e-06H19.1328C19.6736 -0.000520923 20.2092 0.108347 20.709 0.320375C21.2087 0.532403 21.6628 0.843429 22.0452 1.23565C22.4277 1.62788 22.7309 2.0936 22.9376 2.60616C23.1444 3.11873 23.2505 3.66807 23.25 4.22276V19.0272C23.2505 19.5819 23.1444 20.1313 22.9376 20.6438C22.7309 21.1564 22.4277 21.6221 22.0452 22.0143C21.6628 22.4066 21.2087 22.7176 20.709 22.9296C20.2092 23.1417 19.6736 23.2505 19.1328 23.25H4.11719C3.57637 23.2505 3.04076 23.1417 2.54101 22.9296C2.04126 22.7176 1.58718 22.4066 1.20476 22.0143C0.822344 21.6221 0.519093 21.1564 0.312366 20.6438C0.105638 20.1313 -0.0005079 19.5819 1.82714e-06 19.0272V4.22276C-0.0005079 3.66807 0.105638 3.11873 0.312366 2.60616C0.519093 2.0936 0.822344 1.62788 1.20476 1.23565C1.58718 0.843429 2.04126 0.532403 2.54101 0.320375C3.04076 0.108347 3.57637 -0.000520923 4.11719 1.87399e-06Z" fill="#000B1D"/>
<path d="M9.2041 19.0766C10.5417 19.0766 11.626 17.9645 11.626 16.5926V14.1086H9.2041C7.86654 14.1086 6.78223 15.2208 6.78223 16.5926C6.78223 17.9645 7.86654 19.0766 9.2041 19.0766Z" fill="#0ACF83"/>
<path d="M6.78223 11.6246C6.78223 10.2527 7.86654 9.14062 9.2041 9.14062H11.626V14.1086H9.2041C7.86654 14.1086 6.78223 12.9965 6.78223 11.6246Z" fill="#A259FF"/>
<path d="M6.78223 6.65658C6.78223 5.28472 7.86654 4.17261 9.2041 4.17261H11.626V9.14056H9.2041C7.86654 9.14056 6.78223 8.02844 6.78223 6.65658Z" fill="#F24E1E"/>
<path d="M11.6255 4.17261H14.0474C15.3849 4.17261 16.4692 5.28472 16.4692 6.65658C16.4692 8.02844 15.3849 9.14056 14.0474 9.14056H11.6255V4.17261Z" fill="#FF7262"/>
<path d="M16.4692 11.6246C16.4692 12.9965 15.3849 14.1086 14.0474 14.1086C12.7098 14.1086 11.6255 12.9965 11.6255 11.6246C11.6255 10.2527 12.7098 9.14062 14.0474 9.14062C15.3849 9.14062 16.4692 10.2527 16.4692 11.6246Z" fill="#1ABCFE"/>
</g>
<defs>
<clipPath id="clip0_63_41">
<rect width="23.25" height="23.25" fill="white"/>
</clipPath>
</defs>
</svg>
