<svg width="24" height="24" viewBox="0 0 24 24" fill="none" xmlns="http://www.w3.org/2000/svg">
<g clip-path="url(#clip0_63_29)">
<path d="M4.36719 1.87399e-06H19.3828C19.9236 -0.000520923 20.4592 0.108347 20.959 0.320375C21.4587 0.532403 21.9128 0.843429 22.2952 1.23565C22.6777 1.62788 22.9809 2.0936 23.1876 2.60616C23.3944 3.11873 23.5005 3.66807 23.5 4.22276V19.0272C23.5005 19.5819 23.3944 20.1313 23.1876 20.6438C22.9809 21.1564 22.6777 21.6221 22.2952 22.0143C21.9128 22.4066 21.4587 22.7176 20.959 22.9296C20.4592 23.1417 19.9236 23.2505 19.3828 23.25H4.36719C3.82637 23.2505 3.29076 23.1417 2.79101 22.9296C2.29126 22.7176 1.83718 22.4066 1.45476 22.0143C1.07234 21.6221 0.769093 21.1564 0.562366 20.6438C0.355638 20.1313 0.249492 19.5819 0.250002 19.0272V4.22276C0.249492 3.66807 0.355638 3.11873 0.562366 2.60616C0.769093 2.0936 1.07234 1.62788 1.45476 1.23565C1.83718 0.843429 2.29126 0.532403 2.79101 0.320375C3.29076 0.108347 3.82637 -0.000520923 4.36719 1.87399e-06Z" fill="#001E36"/>
<path d="M5.48096 16.3043V6.08029C5.48096 6.01074 5.51002 5.97099 5.57783 5.97099C5.74252 5.97099 5.89752 5.97099 6.12033 5.96106C6.34314 5.95112 6.59502 5.95112 6.85658 5.94118C7.11814 5.93125 7.39908 5.93125 7.69939 5.92131C7.99971 5.91138 8.29033 5.91138 8.58096 5.91138C9.37533 5.91138 10.0341 6.01074 10.5766 6.21939C11.0629 6.38877 11.5063 6.66709 11.8747 7.03413C12.1869 7.35534 12.4281 7.74164 12.5819 8.16683C12.7285 8.5809 12.8039 9.01795 12.8047 9.45849C12.8047 10.313 12.611 11.0184 12.2235 11.5748C11.8342 12.1305 11.2906 12.5529 10.6638 12.787C10.005 13.0354 9.27846 13.1248 8.48408 13.1248C8.25158 13.1248 8.09658 13.1248 7.99971 13.1149C7.90283 13.105 7.76721 13.105 7.58314 13.105V16.2944C7.58531 16.3107 7.58425 16.3274 7.58002 16.3433C7.5758 16.3592 7.56851 16.3741 7.55857 16.3871C7.54863 16.4 7.53625 16.4108 7.52217 16.4188C7.50808 16.4268 7.49258 16.4318 7.47658 16.4335H5.59721C5.51971 16.4335 5.48096 16.3938 5.48096 16.3043ZM7.59283 7.88862V11.2271C7.72846 11.237 7.85439 11.247 7.97064 11.247H8.48408C8.86227 11.2474 9.23819 11.1871 9.59814 11.0681C9.90697 10.975 10.1829 10.7921 10.3925 10.5415C10.596 10.2931 10.6928 9.95529 10.6928 9.51811C10.7019 9.20762 10.6247 8.90089 10.47 8.63381C10.3085 8.37583 10.0709 8.17743 9.79189 8.06747C9.42821 7.92137 9.03908 7.85373 8.64877 7.86875C8.39689 7.86875 8.17408 7.86875 7.99002 7.87869C7.8576 7.86981 7.72467 7.87313 7.59283 7.88862Z" fill="#31A8FF"/>
<path d="M18.8496 10.621C18.5571 10.463 18.2438 10.3492 17.9196 10.2832C17.5634 10.2005 17.1997 10.1572 16.8346 10.154C16.6385 10.1471 16.4425 10.1705 16.2533 10.2236C16.1326 10.2493 16.0256 10.3201 15.953 10.4223C15.9041 10.5029 15.8773 10.5956 15.8755 10.6906C15.88 10.7851 15.914 10.8756 15.9724 10.9489C16.0642 11.0593 16.1761 11.1505 16.3018 11.2172C16.5246 11.3364 16.7571 11.4457 16.9896 11.545C17.513 11.7258 18.0137 11.9692 18.4814 12.2704C18.7996 12.4755 19.0627 12.759 19.2468 13.095C19.4024 13.412 19.479 13.7637 19.4696 14.1184C19.4774 14.5881 19.3456 15.049 19.0918 15.4399C18.8215 15.8365 18.4445 16.1438 18.0068 16.3242C17.5321 16.5329 16.9508 16.6422 16.2533 16.6422C15.8111 16.644 15.3697 16.6007 14.9358 16.513C14.5941 16.4524 14.2619 16.3455 13.9477 16.195C13.9139 16.1777 13.8858 16.1505 13.8669 16.117C13.848 16.0834 13.839 16.045 13.8411 16.0063V14.2774C13.8403 14.2604 13.8434 14.2435 13.8501 14.228C13.8568 14.2124 13.867 14.1987 13.8799 14.188C13.8935 14.1798 13.9094 14.1764 13.9251 14.1782C13.9408 14.18 13.9555 14.1869 13.9671 14.1979C14.3402 14.4236 14.7456 14.5878 15.1683 14.6848C15.5416 14.7844 15.9258 14.8345 16.3114 14.8338C16.6796 14.8338 16.9411 14.7841 17.1155 14.6947C17.1933 14.6579 17.2592 14.599 17.3055 14.5251C17.3519 14.4512 17.3767 14.3653 17.3771 14.2774C17.3771 14.1383 17.2996 14.0091 17.1446 13.88C16.9896 13.7508 16.6699 13.6018 16.1952 13.413C15.7082 13.237 15.2458 12.9965 14.8196 12.6976C14.516 12.4757 14.2645 12.1872 14.0833 11.8531C13.9287 11.5392 13.8522 11.1911 13.8605 10.8396C13.8619 10.4156 13.9758 10 14.1899 9.63735C14.436 9.23848 14.7892 8.92105 15.2071 8.72324C15.6624 8.48478 16.2339 8.37549 16.9218 8.37549C17.3237 8.37561 17.7252 8.40549 18.123 8.46491C18.409 8.50461 18.689 8.5814 18.9561 8.69344C18.9987 8.70891 19.0335 8.74107 19.053 8.78286C19.0642 8.82165 19.0707 8.86169 19.0724 8.90209V10.5216C19.0725 10.541 19.0682 10.56 19.0598 10.5773C19.0514 10.5946 19.0391 10.6095 19.0239 10.621C18.9676 10.6418 18.9059 10.6418 18.8496 10.621Z" fill="#31A8FF"/>
</g>
<defs>
<clipPath id="clip0_63_29">
<rect width="23.25" height="23.25" fill="white" transform="translate(0.25)"/>
</clipPath>
</defs>
</svg>
