<svg width="24" height="24" viewBox="0 0 24 24" fill="none" xmlns="http://www.w3.org/2000/svg">
<g clip-path="url(#clip0_63_65)">
<path d="M4.86719 1.87399e-06H19.8828C20.4236 -0.000520923 20.9592 0.108347 21.459 0.320375C21.9587 0.532403 22.4128 0.843429 22.7952 1.23565C23.1777 1.62788 23.4809 2.0936 23.6876 2.60616C23.8944 3.11873 24.0005 3.66807 24 4.22276V19.0272C24.0005 19.5819 23.8944 20.1313 23.6876 20.6438C23.4809 21.1564 23.1777 21.6221 22.7952 22.0143C22.4128 22.4066 21.9587 22.7176 21.459 22.9296C20.9592 23.1417 20.4236 23.2505 19.8828 23.25H4.86719C4.32637 23.2505 3.79076 23.1417 3.29101 22.9296C2.79126 22.7176 2.33718 22.4066 1.95476 22.0143C1.57234 21.6221 1.26909 21.1564 1.06237 20.6438C0.855638 20.1313 0.749492 19.5819 0.750002 19.0272V4.22276C0.749492 3.66807 0.855638 3.11873 1.06237 2.60616C1.26909 2.0936 1.57234 1.62788 1.95476 1.23565C2.33718 0.843429 2.79126 0.532403 3.29101 0.320375C3.79076 0.108347 4.32637 -0.000520923 4.86719 1.87399e-06Z" fill="#00005B"/>
<path d="M6.27246 16.3046V6.08053C6.27246 6.01098 6.30152 5.97124 6.36934 5.97124C6.53402 5.97124 6.68902 5.97124 6.91184 5.9613C7.13465 5.95136 7.38652 5.95136 7.64809 5.94143C7.90965 5.93149 8.19059 5.93149 8.4909 5.92156C8.79121 5.91162 9.08184 5.91162 9.37246 5.91162C10.1668 5.91162 10.8256 6.01098 11.3681 6.21963C11.8544 6.38902 12.2978 6.66733 12.6662 7.03438C12.9784 7.35559 13.2196 7.74188 13.3734 8.16707C13.52 8.58114 13.5954 9.0182 13.5962 9.45874C13.5962 10.3132 13.4025 11.0187 13.015 11.5751C12.6257 12.1307 12.0821 12.5532 11.4553 12.7873C10.7965 13.0357 10.07 13.1251 9.27559 13.1251C9.04309 13.1251 8.88809 13.1251 8.79121 13.1151C8.69434 13.1052 8.55871 13.1052 8.37465 13.1052V16.2946C8.37681 16.311 8.37575 16.3276 8.37153 16.3435C8.36731 16.3595 8.36001 16.3743 8.35007 16.3873C8.34013 16.4003 8.32775 16.4111 8.31367 16.4191C8.29959 16.427 8.28409 16.432 8.26809 16.4337H6.38871C6.31121 16.4337 6.27246 16.394 6.27246 16.3046ZM8.38434 7.88886V11.2273C8.51996 11.2373 8.6459 11.2472 8.76215 11.2472H9.27559C9.65377 11.2477 10.0297 11.1873 10.3896 11.0684C10.6985 10.9752 10.9744 10.7923 11.184 10.5417C11.3875 10.2934 11.4843 9.95553 11.4843 9.51835C11.4935 9.20787 11.4162 8.90114 11.2615 8.63406C11.1 8.37608 10.8624 8.17768 10.5834 8.06771C10.2197 7.92162 9.83058 7.85397 9.44027 7.86899C9.1884 7.86899 8.96559 7.86899 8.78152 7.87893C8.6491 7.87005 8.51618 7.87338 8.38434 7.88886Z" fill="#9999FF"/>
<path d="M14.9526 8.46544H16.6479C16.6938 8.46657 16.7382 8.48256 16.7747 8.51111C16.8112 8.53966 16.838 8.57931 16.8513 8.62441C16.8809 8.70435 16.9004 8.78782 16.9094 8.87281C16.9288 8.97217 16.9482 9.08146 16.9579 9.18082C16.9676 9.28018 16.9772 9.40935 16.9772 9.53852C17.2681 9.19023 17.6196 8.90048 18.0138 8.68403C18.4641 8.42747 18.9712 8.29403 19.4863 8.29653C19.5022 8.29431 19.5185 8.2954 19.534 8.29973C19.5495 8.30406 19.564 8.31154 19.5767 8.32174C19.5893 8.33193 19.5998 8.34463 19.6076 8.35907C19.6154 8.37351 19.6203 8.38941 19.6219 8.40582V10.3831C19.6219 10.4626 19.5735 10.4924 19.4669 10.4924C19.1155 10.4806 18.764 10.5139 18.4207 10.5917C18.1408 10.651 17.868 10.7409 17.6069 10.86C17.4195 10.9467 17.2514 11.0718 17.1129 11.2276V16.2949C17.1129 16.3943 17.0741 16.434 16.9869 16.434H15.0785C15.0606 16.4371 15.0423 16.4364 15.0247 16.4321C15.0071 16.4277 14.9906 16.4197 14.9761 16.4085C14.9616 16.3974 14.9494 16.3833 14.9404 16.3672C14.9314 16.3511 14.9256 16.3333 14.9235 16.3148V10.7706C14.9235 10.5321 14.9235 10.2837 14.9138 10.0254C14.9041 9.76704 14.9041 9.50871 14.8944 9.25037C14.8944 9.02185 14.8751 8.80326 14.8557 8.57473C14.8531 8.56299 14.8528 8.55084 14.8548 8.53898C14.8569 8.52712 14.8611 8.51579 14.8674 8.50564C14.8737 8.49548 14.8819 8.4867 14.8916 8.47981C14.9012 8.47291 14.912 8.46802 14.9235 8.46544C14.9235 8.4555 14.9429 8.4555 14.9526 8.46544Z" fill="#9999FF"/>
</g>
<defs>
<clipPath id="clip0_63_65">
<rect width="23.25" height="23.25" fill="white" transform="translate(0.75)"/>
</clipPath>
</defs>
</svg>
