<svg width="283" height="288" viewBox="0 0 283 288" fill="none" xmlns="http://www.w3.org/2000/svg">
<g filter="url(#filter0_d_1_42)">
<path d="M140.958 268.383C104.921 268.383 68.8677 268.383 32.8303 268.399C29.5248 268.399 26.4038 267.907 23.6057 266.015C19.6084 263.324 17.3484 259.571 17.0562 254.665C16.9794 253.496 17.0255 252.328 17.0255 251.159C17.0255 214.711 17.1639 178.263 16.9948 141.815C16.718 81.3446 59.2742 29.1947 116.713 17.6451C183.407 4.21927 247.425 47.3264 262.185 114.409C264.076 123.022 265.013 131.788 264.998 140.63C264.967 177.924 264.952 215.234 265.013 252.528C265.013 259.294 262.4 264.185 256.388 267.091C254.282 268.106 252.022 268.383 249.701 268.383C232.205 268.352 214.693 268.383 197.197 268.383C178.441 268.383 159.699 268.383 140.943 268.383H140.958Z" fill="white"/>
</g>
<path d="M147.738 62.5208C109.395 58.1532 72.5269 88.6958 70.3438 127.389C68.6987 145.982 74.1873 162.715 85.7642 177.371C86.8097 178.693 87.2863 179.801 86.7943 181.508C85.7642 185.076 85.5028 188.767 85.3645 192.473C84.9801 203.161 85.2722 213.85 85.1954 224.523C84.9801 229.29 86.0563 234.073 91.4681 234.919C94.7428 235.349 97.8946 233.458 99.0784 230.382C99.6011 229.013 99.6472 227.583 99.6472 226.137C99.6472 215.557 99.6319 204.961 99.6472 194.38C99.6472 193.334 99.3397 192.181 100.155 191.15C106.335 194.995 112.562 198.548 119.618 200.501C121.556 201.07 122.724 202.162 123.693 203.869C127.09 209.851 130.642 215.757 134.101 221.693C136.792 226.999 144.264 227.106 147.046 221.831C150.813 215.587 154.626 209.374 158.393 203.13C159.054 202.023 159.761 201.254 161.129 200.9C166.941 199.424 172.322 196.887 177.457 193.842C177.81 193.626 178.179 193.457 178.625 193.595C179.071 194.564 178.856 195.595 178.856 196.61C179.01 207.283 178.564 218.002 179.102 228.659C179.855 236.026 189.925 237.241 192.693 230.505C193.292 229.044 193.338 227.521 193.338 225.968C193.338 213.527 193.154 201.1 193.4 188.659C193.554 180.477 191.493 173.003 187.45 166.036C178.056 149.873 168.171 133.833 158.746 117.685C157.27 115.148 155.072 113.733 152.212 113.733C150.567 113.733 148.338 113.671 148.338 113.671C148.338 113.671 148.338 112.564 148.338 111.903C148.338 109.642 148.445 107.381 148.338 105.12C148.123 101.091 145.017 98.1538 141.143 98.1538C137.253 98.1538 134.301 101.122 134.147 105.228C134.07 107.181 134.116 109.134 134.116 111.087C134.116 111.61 134.147 113.671 134.147 113.671H130.873C130.873 113.671 129.289 113.671 128.136 114.117C126.076 114.901 124.953 116.855 123.893 118.3C121.51 121.561 112.285 136.663 100.201 157.563C98.7709 160.838 99.2936 164.606 102.322 166.436C105.382 168.282 109.41 167.544 111.624 164.698C111.839 164.345 117.62 155.056 118.358 153.856H161.821C162.559 153.872 163.435 153.902 163.435 153.902C163.435 153.902 164.527 155.64 164.973 156.425C168.37 162.407 171.983 168.266 175.335 174.28C176.98 177.217 177.088 176.709 174.197 178.847C168.693 182.923 162.574 185.845 155.948 187.49C151.874 188.505 148.953 190.612 147 194.334C145.616 196.963 143.956 199.455 142.388 201.977C141.911 202.731 141.635 203.669 140.512 204.176C138.59 200.931 136.607 197.702 134.762 194.395C132.717 190.72 129.935 188.52 125.661 187.321C97.2181 179.308 79.7375 150.642 85.7796 121.776C93.7127 83.8668 135.562 64.7815 169.185 84.0667C194.522 98.2153 204.531 131.311 192.139 157.47C188.05 167.098 201.241 172.511 205.269 162.93C225.548 120.423 197.889 67.2114 147.769 62.4901L147.738 62.5208ZM126.475 140.615L134.332 127.897H148.43L155.518 140.615H126.46H126.475Z" fill="#FF8114"/>
<g filter="url(#filter1_d_1_42)">
<path d="M140.393 268.235C104.413 268.235 68.4171 268.235 32.4368 268.25C29.1365 268.25 26.0205 267.759 23.2268 265.871C19.2358 263.184 16.9794 259.438 16.6877 254.541C16.611 253.374 16.657 252.208 16.657 251.041C16.657 214.658 16.7952 178.275 16.6263 141.892C16.35 81.5302 58.8387 29.4734 116.186 17.9445C182.774 4.54265 246.691 47.5728 261.427 114.536C263.315 123.133 264.252 131.883 264.236 140.71C264.206 177.937 264.19 215.18 264.252 252.407C264.252 259.162 261.642 264.044 255.64 266.945C253.537 267.958 251.281 268.235 248.963 268.235C231.495 268.204 214.011 268.235 196.543 268.235C177.816 268.235 159.105 268.235 140.378 268.235H140.393Z" fill="white"/>
</g>
<path d="M94.1281 222.14C93.9125 222.14 93.6824 222.14 93.4524 222.097C91.3532 221.766 88.5495 220.558 88.837 213.855C88.8658 210.258 88.837 206.72 88.837 203.181C88.8083 196.852 88.7795 190.292 88.9952 183.862C89.1246 180.093 89.3978 176.972 90.2748 173.965C90.9506 171.635 90.0879 170.096 89.0671 168.801C78.2404 155.078 73.4813 139.687 74.9478 123.072C76.7738 90.6631 106.119 63.3176 139.016 63.3176C141.259 63.3176 143.517 63.447 145.731 63.6916C167.082 65.7055 185.371 77.5298 195.91 96.1293C206.392 114.628 207.312 136.853 198.369 155.582C197.319 158.07 195.465 159.466 193.25 159.466C191.496 159.466 189.828 158.588 188.894 157.164C188.189 156.1 187.585 154.287 188.707 151.655C200.713 126.323 190.82 94.6908 166.622 81.1835C158.297 76.4078 148.937 73.876 139.563 73.876C113.697 73.876 91.8852 91.7851 86.5222 117.419C80.7278 145.066 97.5645 172.728 124.84 180.41C128.434 181.431 130.72 183.201 132.474 186.336C133.682 188.509 134.976 190.652 136.213 192.738C136.759 193.658 137.32 194.579 137.866 195.514C138.139 195.96 138.614 196.219 139.103 196.219C139.304 196.219 139.491 196.176 139.692 196.089C140.972 195.514 141.518 194.521 141.863 193.86C141.935 193.73 142.007 193.601 142.079 193.471C142.438 192.882 142.812 192.306 143.172 191.716C144.279 189.947 145.443 188.12 146.435 186.221C148.017 183.229 150.375 181.417 153.883 180.554C160.21 178.986 166.133 176.181 171.468 172.225L172.158 171.721C174.53 170.01 174.717 169.219 173.308 166.744L172.934 166.097C171.209 163.004 169.383 159.897 167.614 156.905C166.148 154.417 164.681 151.914 163.243 149.396C162.826 148.648 161.777 146.98 161.777 146.98C161.518 146.577 161.087 146.318 160.612 146.304C160.612 146.304 159.764 146.275 159.045 146.275H118.384C117.881 146.26 117.421 146.519 117.162 146.936L110.907 157.006C109.915 158.257 108.42 158.962 106.81 158.962C105.861 158.962 104.94 158.703 104.135 158.214C101.835 156.819 101.748 153.999 102.683 151.784C114.128 132.005 122.568 118.21 124.725 115.261L125.156 114.657C125.961 113.521 126.795 112.327 128.032 111.852C128.707 111.593 129.743 111.535 130.088 111.535H133.15C133.538 111.535 133.898 111.377 134.171 111.104C134.444 110.831 134.588 110.457 134.588 110.068C134.588 110.068 134.559 108.155 134.559 107.666V106.17C134.559 104.861 134.53 103.552 134.588 102.243C134.703 99.1645 136.802 97.0212 139.692 97.0068C142.611 97.0068 144.825 99.1645 144.983 102.157C145.055 103.537 145.041 104.976 145.012 106.371C145.012 107.062 144.998 107.738 144.998 108.428V110.083C144.998 110.859 145.616 111.507 146.392 111.521C146.392 111.521 148.506 111.579 150.059 111.579C152.172 111.579 153.768 112.557 154.933 114.556C159.131 121.749 163.502 129.027 167.729 136.076C172.373 143.829 177.19 151.856 181.777 159.768C185.529 166.226 187.283 172.901 187.14 180.18C186.982 188.609 187.025 197.183 187.053 205.468C187.053 208.676 187.082 211.898 187.082 215.106C187.082 216.487 187.053 217.71 186.593 218.803C185.759 220.846 183.962 222.054 181.762 222.054C179.562 222.054 176.96 220.615 176.644 217.48C176.342 211.395 176.385 205.109 176.428 199.024C176.457 195.284 176.486 191.429 176.428 187.617C176.428 187.43 176.428 187.214 176.442 187.013C176.486 186.221 176.529 185.229 176.083 184.222C175.91 183.862 175.608 183.575 175.22 183.445C174.976 183.359 174.717 183.316 174.458 183.316C173.754 183.316 173.207 183.632 172.949 183.79C167.672 186.926 162.798 189.026 158.053 190.235C156.198 190.709 155.278 191.889 154.617 192.968C152.791 196.003 150.95 199.024 149.11 202.045C147.399 204.85 145.702 207.655 144.006 210.46C143.013 212.33 141.245 213.409 139.232 213.409C137.219 213.409 135.364 212.287 134.415 210.417C133.193 208.316 132.014 206.303 130.821 204.289C128.75 200.764 126.666 197.24 124.653 193.687C123.488 191.644 122.065 190.479 119.994 189.861C113.294 188.005 107.27 184.452 102.151 181.273C101.921 181.129 101.648 181.057 101.389 181.057C100.958 181.057 100.541 181.244 100.253 181.604C99.3186 182.798 99.3905 184.049 99.448 184.955C99.448 185.142 99.4768 185.329 99.4768 185.502C99.448 195.399 99.448 205.31 99.4768 215.207C99.4768 216.487 99.448 217.623 99.0454 218.659C98.269 220.687 96.2848 222.04 94.1281 222.04V222.14ZM133.366 121.979C132.863 121.979 132.402 122.238 132.144 122.655L124.796 134.551C124.523 134.997 124.509 135.558 124.768 136.004C125.027 136.464 125.501 136.738 126.019 136.738H153.193C153.696 136.738 154.171 136.464 154.43 136.033C154.688 135.601 154.688 135.055 154.444 134.609L147.816 122.712C147.557 122.252 147.082 121.979 146.565 121.979H133.38H133.366Z" fill="#FF8114"/>
<defs>
<filter id="filter0_d_1_42" x="0.493408" y="0.946228" width="281.02" height="286.202" filterUnits="userSpaceOnUse" color-interpolation-filters="sRGB">
<feFlood flood-opacity="0" result="BackgroundImageFix"/>
<feColorMatrix in="SourceAlpha" type="matrix" values="0 0 0 0 0 0 0 0 0 0 0 0 0 0 0 0 0 0 127 0" result="hardAlpha"/>
<feOffset dy="2.25"/>
<feGaussianBlur stdDeviation="8.25"/>
<feComposite in2="hardAlpha" operator="out"/>
<feColorMatrix type="matrix" values="0 0 0 0 0 0 0 0 0 0 0 0 0 0 0 0 0 0 0.09 0"/>
<feBlend mode="normal" in2="BackgroundImageFix" result="effect1_dropShadow_1_42"/>
<feBlend mode="normal" in="SourceGraphic" in2="effect1_dropShadow_1_42" result="shape"/>
</filter>
<filter id="filter1_d_1_42" x="0.125" y="1.25" width="280.627" height="285.75" filterUnits="userSpaceOnUse" color-interpolation-filters="sRGB">
<feFlood flood-opacity="0" result="BackgroundImageFix"/>
<feColorMatrix in="SourceAlpha" type="matrix" values="0 0 0 0 0 0 0 0 0 0 0 0 0 0 0 0 0 0 127 0" result="hardAlpha"/>
<feOffset dy="2.25"/>
<feGaussianBlur stdDeviation="8.25"/>
<feComposite in2="hardAlpha" operator="out"/>
<feColorMatrix type="matrix" values="0 0 0 0 0 0 0 0 0 0 0 0 0 0 0 0 0 0 0.09 0"/>
<feBlend mode="normal" in2="BackgroundImageFix" result="effect1_dropShadow_1_42"/>
<feBlend mode="normal" in="SourceGraphic" in2="effect1_dropShadow_1_42" result="shape"/>
</filter>
</defs>
</svg>
