<svg width="256" height="256" viewBox="0 0 256 256" fill="none" xmlns="http://www.w3.org/2000/svg">
<g clip-path="url(#clip0_270_1916)">
<g clip-path="url(#clip1_270_1916)">
<rect x="-19" y="-19" width="294" height="333" fill="#F0F0F0" fill-opacity="0.8"/>
<g clip-path="url(#clip2_270_1916)">
<path opacity="0.8" d="M59.1734 27.2129L71.1373 121.718H165.213L59.1734 27.2129Z" fill="#EFC144"/>
<path opacity="0.6" d="M196.916 27.2131L183.941 121.718H89.865L196.916 27.2131Z" fill="#AA46C3"/>
<path d="M93.5739 198.082L83.2882 165.647L75.6918 198.082L65.7672 195.744L77.5824 145.279L87.405 144.896L103.29 194.986L93.5739 198.082Z" fill="#F2CD69"/>
<path d="M130.375 199.206L109.332 198.759L104.909 191.303L123.093 156.116L110.232 155.844L110.449 145.628L131.497 146.071L135.915 153.532L117.731 188.714L130.592 188.986L130.375 199.206Z" fill="#C77D9E"/>
<path d="M159.138 199.3L157.782 148.171L167.512 145.901L179.471 171.996L178.779 145.807L188.971 145.535L190.326 196.664L180.597 198.934L168.637 172.839L169.33 199.028L159.138 199.3Z" fill="#CB8DDA"/>
<path d="M141.023 145.69L137.947 198.531L148.126 199.126L151.203 146.285L141.023 145.69Z" fill="#7DB6F1"/>
<path d="M73.4528 216.831V217.402C73.4528 219.54 73.0704 221.886 70.0327 221.886C66.995 221.886 66.6296 219.821 66.6296 217.351V208.792C66.6296 206.101 67.7852 204.61 70.0582 204.61C72.875 204.61 73.3806 206.616 73.3806 208.822V209.477H71.5665V208.685C71.5665 207.352 71.3583 206.245 70.0327 206.245C68.7752 206.245 68.4565 207.246 68.4565 208.728V217.466C68.4565 219.152 68.8261 220.264 70.0837 220.264C71.3413 220.264 71.6302 219.127 71.6302 217.543V216.836H73.4571L73.4528 216.831Z" fill="#6D6D6D"/>
<path d="M77.1024 204.086V209.988C77.4337 209.247 78.1772 208.634 79.4433 208.634C81.3594 208.634 81.933 210.078 81.933 211.926V221.66H80.1443V212.381C80.1443 211.313 79.9999 210.274 78.789 210.274C77.4168 210.274 77.1024 211.321 77.1024 213.19V221.66H75.3137V204.086H77.1024Z" fill="#6D6D6D"/>
<path d="M90.0817 219.438C90.0817 220.311 90.0944 221.277 90.1327 221.656H88.4757C88.412 221.345 88.3525 220.83 88.3398 220.613C87.9277 221.562 87.1417 221.856 86.2452 221.856C84.3971 221.856 83.6621 220.213 83.6621 218.232V218.007C83.6621 215.107 85.4592 214.081 87.7365 214.081H88.293V212.049C88.293 210.887 88.0976 210.154 87.0949 210.154C86.0923 210.154 85.8289 210.917 85.8289 211.917V212.258H84.0657V211.939C84.0657 210.146 84.7667 208.626 87.1544 208.626C89.3849 208.626 90.0817 210.027 90.0817 211.917V219.433V219.438ZM88.3313 215.511H87.7067C86.258 215.511 85.3955 216.12 85.3955 217.973V218.19C85.3955 219.335 85.7482 220.259 86.7508 220.259C87.9277 220.259 88.3313 219.314 88.3313 217.398V215.516V215.511Z" fill="#6D6D6D"/>
<path d="M92.4566 212.739C92.4566 210.163 92.4566 209.469 92.4311 208.834H94.1348C94.173 209.124 94.207 209.571 94.207 210.116C94.5851 209.175 95.3456 208.63 96.5522 208.63C97.9542 208.63 99.0758 209.43 99.0758 211.79V221.66H97.2872V212.143C97.2872 210.9 96.8708 210.274 95.9446 210.274C94.874 210.274 94.2452 210.806 94.2452 213.233V221.66H92.4566V212.739Z" fill="#6D6D6D"/>
<path d="M107.722 221.392C107.722 223.994 107.433 226.187 104.229 226.187C101.561 226.187 101.06 224.39 101.06 222.997V222.934H102.861V223.01C102.861 223.645 103.099 224.667 104.327 224.667C105.648 224.667 105.937 223.679 105.937 221.831V220.183C105.597 221.056 104.909 221.52 103.775 221.52C101.82 221.52 101.068 220.089 101.068 217.594V212.441C101.068 210.184 102.046 208.63 104.038 208.63C105.351 208.63 105.946 209.303 106.133 209.95C106.133 209.588 106.196 209.103 106.23 208.834H107.777C107.751 209.541 107.726 210.695 107.726 212.211V221.396L107.722 221.392ZM102.866 212.539V217.449C102.866 219.097 103.295 219.906 104.263 219.906C105.721 219.906 105.95 218.445 105.95 216.716V212.927C105.95 211.453 105.793 210.269 104.429 210.269C103.333 210.269 102.866 211.078 102.866 212.535V212.539Z" fill="#6D6D6D"/>
<path d="M111.465 215.614V217.713C111.465 218.99 111.72 220.319 112.981 220.319C114.243 220.319 114.417 219.331 114.417 218.1V217.994H116.168V218.083C116.168 219.57 115.824 221.856 112.986 221.856C110.313 221.856 109.71 220.098 109.71 217.496V212.718C109.71 210.772 110.39 208.626 113.015 208.626C115.484 208.626 116.206 210.461 116.206 212.718V215.609H111.465V215.614ZM114.477 214.149V212.548C114.477 211.351 114.286 210.176 113.003 210.176C111.792 210.176 111.477 211.176 111.477 212.56V214.149H114.477Z" fill="#6D6D6D"/>
<path d="M122.77 221.656V215.375C122.77 215.188 122.745 215.077 122.698 214.92L119.609 204.827H121.572C122.405 207.872 123.412 211.5 123.692 213.046H123.717C124.04 211.424 125.064 207.736 125.833 204.827H127.728L124.605 215.035C124.58 215.145 124.554 215.282 124.554 215.537V221.656H122.766H122.77Z" fill="#6D6D6D"/>
<path d="M134.288 212.471V217.836C134.288 220.617 132.975 221.856 130.919 221.856C128.862 221.856 127.613 220.634 127.613 217.905V212.424C127.613 209.954 128.913 208.626 130.991 208.626C133.069 208.626 134.284 210.031 134.284 212.467L134.288 212.471ZM129.415 212.42V217.968C129.415 219.365 129.882 220.259 130.957 220.259C131.951 220.259 132.486 219.574 132.486 217.943V212.407C132.486 211.147 132.07 210.231 130.957 210.231C129.844 210.231 129.415 211.019 129.415 212.42Z" fill="#6D6D6D"/>
<path d="M142.802 218.194C142.802 219.855 142.802 221.052 142.827 221.661H141.124C141.086 221.426 141.052 220.779 141.052 220.328C140.656 221.49 139.849 221.861 138.753 221.861C137.657 221.861 136.263 221.452 136.263 218.586V208.834H138.052V218.118C138.052 219.638 138.46 220.238 139.412 220.238C140.308 220.238 141.022 219.697 141.022 217.249V208.839H142.81V218.198L142.802 218.194Z" fill="#6D6D6D"/>
<path d="M145.147 213.199C145.147 211.129 145.16 209.971 145.122 208.834H146.825C146.851 209.171 146.889 209.975 146.889 210.84C147.361 209.26 148.465 208.689 149.587 208.664V210.878C148.006 210.891 146.936 211.806 146.936 214.123V221.664H145.147V213.203V213.199Z" fill="#6D6D6D"/>
<path d="M161.993 214.634C161.993 211.551 162.044 208.226 162.095 206.424H162.069C161.653 209.248 160.37 216.657 159.469 221.656H157.723C157.043 217.326 155.718 209.414 155.314 206.411H155.263C155.314 208.362 155.403 212.182 155.403 215.064V221.656H153.742V204.827H156.389C157.311 209.801 158.411 215.971 158.636 218.113H158.662C158.925 216.014 160.208 209.507 161.126 204.827H163.718V221.656H161.984V214.634H161.993Z" fill="#6D6D6D"/>
<path d="M172.453 212.471V217.836C172.453 220.617 171.14 221.856 169.084 221.856C167.027 221.856 165.778 220.634 165.778 217.905V212.424C165.778 209.954 167.078 208.626 169.156 208.626C171.233 208.626 172.448 210.031 172.448 212.467L172.453 212.471ZM167.58 212.42V217.968C167.58 219.365 168.047 220.259 169.122 220.259C170.116 220.259 170.651 219.574 170.651 217.943V212.407C170.651 211.147 170.235 210.231 169.122 210.231C168.009 210.231 167.58 211.019 167.58 212.42Z" fill="#6D6D6D"/>
<path d="M180.797 212.471V217.836C180.797 220.617 179.484 221.856 177.428 221.856C175.371 221.856 174.122 220.634 174.122 217.905V212.424C174.122 209.954 175.422 208.626 177.5 208.626C179.578 208.626 180.793 210.031 180.793 212.467L180.797 212.471ZM175.924 212.42V217.968C175.924 219.365 176.391 220.259 177.466 220.259C178.46 220.259 178.995 219.574 178.995 217.943V212.407C178.995 211.147 178.579 210.231 177.466 210.231C176.353 210.231 175.924 211.019 175.924 212.42Z" fill="#6D6D6D"/>
<path d="M189.141 204.086V218.356C189.141 219.88 189.141 220.941 189.167 221.66H187.463C187.425 221.418 187.391 220.711 187.391 220.4C187.059 221.188 186.473 221.865 185.16 221.865C183.006 221.865 182.467 220.157 182.467 217.696V212.441C182.467 210.176 183.363 208.638 185.347 208.638C186.439 208.638 187.072 209.085 187.352 209.601V204.095H189.141V204.086ZM184.268 212.543V217.751C184.268 219.382 184.672 220.221 185.704 220.221C187.042 220.221 187.352 218.939 187.352 217.172V212.956C187.352 211.547 187.212 210.274 185.755 210.274C184.693 210.274 184.268 211.151 184.268 212.543Z" fill="#6D6D6D"/>
</g>
</g>
</g>
<defs>
<clipPath id="clip0_270_1916">
<rect width="256" height="256" rx="12" fill="white"/>
</clipPath>
<clipPath id="clip1_270_1916">
<rect x="-19" y="-19" width="294" height="333" rx="4.43931" fill="white"/>
</clipPath>
<clipPath id="clip2_270_1916">
<rect width="137.742" height="198.974" fill="white" transform="translate(59.1734 27.2126)"/>
</clipPath>
</defs>
</svg>
