<svg width="142" height="145" viewBox="0 0 142 145" fill="none" xmlns="http://www.w3.org/2000/svg">
<g filter="url(#filter0_d_1_124)">
<path d="M70.9801 125.993C55.1786 125.993 39.3705 125.993 23.569 126C22.1197 126 20.7512 125.784 19.5243 124.955C17.7716 123.775 16.7806 122.13 16.6526 119.979C16.6188 119.467 16.6391 118.955 16.6391 118.442C16.6391 102.464 16.6997 86.4858 16.6256 70.5075C16.5042 43.9984 35.1639 21.1367 60.3492 16.0735C89.5926 10.1879 117.663 29.0854 124.135 58.4935C124.964 62.2689 125.375 66.1118 125.368 69.9884C125.355 86.3375 125.348 102.693 125.375 119.042C125.375 122.009 124.229 124.153 121.593 125.427C120.67 125.872 119.679 125.993 118.661 125.993C110.989 125.98 103.311 125.993 95.6395 125.993C87.4152 125.993 79.1976 125.993 70.9733 125.993H70.9801Z" fill="white"/>
</g>
<path d="M50.6619 105.75C50.5672 105.75 50.4662 105.75 50.3652 105.731C49.4433 105.586 48.212 105.055 48.3382 102.111C48.3509 100.532 48.3382 98.9778 48.3382 97.4237C48.3256 94.6441 48.313 91.7634 48.4077 88.9395C48.4645 87.2843 48.5845 85.9135 48.9697 84.5931C49.2665 83.5697 48.8876 82.8938 48.4393 82.3252C43.6845 76.2985 41.5945 69.5389 42.2385 62.2423C43.0405 48.0093 55.9281 36 70.3755 36C71.3605 36 72.3519 36.0569 73.3243 36.1643C82.7012 37.0487 90.7331 42.2416 95.3615 50.4099C99.9647 58.534 100.369 68.2944 96.4413 76.5196C95.9803 77.6125 95.1658 78.2252 94.1933 78.2252C93.423 78.2252 92.6905 77.8399 92.2801 77.2145C91.9707 76.747 91.7055 75.951 92.198 74.7949C97.4705 63.67 93.1262 49.7782 82.4991 43.8462C78.8431 41.7488 74.7324 40.6369 70.6154 40.6369C59.2558 40.6369 49.6769 48.5021 47.3216 59.7596C44.7769 71.9016 52.1711 84.0499 64.1495 87.4233C65.7281 87.8719 66.7321 88.6489 67.5024 90.0261C68.0328 90.98 68.6011 91.9213 69.1442 92.8373C69.3841 93.2416 69.6304 93.6459 69.8703 94.0566C69.9903 94.2524 70.1987 94.3661 70.4133 94.3661C70.5017 94.3661 70.5838 94.3472 70.6722 94.3093C71.2342 94.0566 71.4742 93.6207 71.6257 93.3301C71.6573 93.2732 71.6889 93.2164 71.7204 93.1595C71.8783 92.9005 72.0425 92.6478 72.2003 92.3888C72.6865 91.6117 73.198 90.8094 73.6337 89.9755C74.3283 88.6615 75.3638 87.8655 76.9045 87.4865C79.6829 86.7979 82.2844 85.566 84.627 83.8287L84.9301 83.6076C85.972 82.8559 86.0541 82.5084 85.4353 81.4218L85.2711 81.1376C84.5134 79.7793 83.7115 78.4148 82.9348 77.1008C82.2907 76.0079 81.6466 74.9086 81.0152 73.8031C80.8321 73.4746 80.3711 72.7418 80.3711 72.7418C80.2575 72.5649 80.0681 72.4512 79.8597 72.4449C79.8597 72.4449 79.4871 72.4322 79.1714 72.4322H61.3143C61.0933 72.4259 60.8912 72.5396 60.7776 72.7228L58.0308 77.145C57.5951 77.6946 56.9384 78.0041 56.2312 78.0041C55.8145 78.0041 55.4104 77.8904 55.0567 77.6756C54.0464 77.0629 54.0086 75.8246 54.419 74.8518C59.4452 66.1654 63.1518 60.1071 64.099 58.812L64.2884 58.5467C64.642 58.0476 65.0082 57.5233 65.5513 57.3148C65.848 57.2011 66.3027 57.1758 66.4542 57.1758H67.7992C67.9697 57.1758 68.1275 57.1063 68.2475 56.9863C68.3675 56.8662 68.4306 56.702 68.4306 56.5314C68.4306 56.5314 68.418 55.6912 68.418 55.4764V54.8194C68.418 54.2445 68.4054 53.6697 68.4306 53.0948C68.4811 51.7429 69.403 50.8016 70.6722 50.7953C71.9541 50.7953 72.9265 51.7429 72.9959 53.0569C73.0275 53.6633 73.0212 54.2951 73.0086 54.9079C73.0086 55.2111 73.0022 55.508 73.0022 55.8112V56.5377C73.0022 56.8789 73.2738 57.1632 73.6147 57.1695C73.6147 57.1695 74.543 57.1947 75.2249 57.1947C76.1531 57.1947 76.854 57.6243 77.3655 58.5024C79.2093 61.6611 81.1289 64.8577 82.9853 67.9532C85.0248 71.3583 87.1402 74.8834 89.1545 78.3579C90.8025 81.1944 91.5729 84.1257 91.5097 87.3223C91.4403 91.0242 91.4592 94.7894 91.4718 98.4282C91.4718 99.8369 91.4845 101.252 91.4845 102.661C91.4845 103.267 91.4718 103.804 91.2698 104.284C90.9035 105.181 90.1142 105.712 89.1481 105.712C88.182 105.712 87.0391 105.08 86.9002 103.703C86.7676 101.031 86.7866 98.2702 86.8055 95.598C86.8181 93.9555 86.8308 92.2624 86.8055 90.5883C86.8055 90.5062 86.8055 90.4114 86.8118 90.323C86.8308 89.9755 86.8497 89.5396 86.654 89.0974C86.5782 88.9395 86.4456 88.8131 86.2751 88.7563C86.1678 88.7184 86.0541 88.6994 85.9404 88.6994C85.631 88.6994 85.3911 88.8384 85.2774 88.9079C82.96 90.2851 80.8195 91.2074 78.7357 91.7381C77.9212 91.9466 77.517 92.4646 77.2266 92.9384C76.4246 94.2713 75.6164 95.598 74.8082 96.9246C74.0567 98.1565 73.3117 99.3884 72.5666 100.62C72.1309 101.442 71.3542 101.915 70.4702 101.915C69.5862 101.915 68.7716 101.423 68.3549 100.601C67.8181 99.679 67.3004 98.7946 66.7763 97.9101C65.867 96.3624 64.9514 94.8146 64.0674 93.2543C63.5559 92.3572 62.9308 91.8455 62.0215 91.5738C59.079 90.7589 56.4333 89.1985 54.1854 87.8024C54.0843 87.7392 53.9644 87.7076 53.8507 87.7076C53.6613 87.7076 53.4782 87.7897 53.3519 87.9477C52.9414 88.472 52.973 89.0216 52.9983 89.4196C52.9983 89.5017 53.0109 89.5839 53.0109 89.6597C52.9983 94.006 52.9983 98.3587 53.0109 102.705C53.0109 103.267 52.9983 103.766 52.8215 104.221C52.4805 105.112 51.6091 105.706 50.6619 105.706V105.75ZM67.8939 61.7622C67.6729 61.7622 67.4708 61.8759 67.3572 62.0591L64.1305 67.2836C64.0106 67.4794 64.0042 67.7258 64.1179 67.9216C64.2316 68.1238 64.4399 68.2438 64.6673 68.2438H76.6014C76.8225 68.2438 77.0308 68.1238 77.1445 67.9343C77.2581 67.7447 77.2581 67.5047 77.1508 67.3088L74.2399 62.0844C74.1262 61.8822 73.9178 61.7622 73.6905 61.7622H67.9002H67.8939Z" fill="#FF8114"/>
<defs>
<filter id="filter0_d_1_124" x="0.125" y="0.75" width="141.75" height="144" filterUnits="userSpaceOnUse" color-interpolation-filters="sRGB">
<feFlood flood-opacity="0" result="BackgroundImageFix"/>
<feColorMatrix in="SourceAlpha" type="matrix" values="0 0 0 0 0 0 0 0 0 0 0 0 0 0 0 0 0 0 127 0" result="hardAlpha"/>
<feOffset dy="2.25"/>
<feGaussianBlur stdDeviation="8.25"/>
<feComposite in2="hardAlpha" operator="out"/>
<feColorMatrix type="matrix" values="0 0 0 0 0 0 0 0 0 0 0 0 0 0 0 0 0 0 0.09 0"/>
<feBlend mode="normal" in2="BackgroundImageFix" result="effect1_dropShadow_1_124"/>
<feBlend mode="normal" in="SourceGraphic" in2="effect1_dropShadow_1_124" result="shape"/>
</filter>
</defs>
</svg>
