<svg width="32" height="32" viewBox="0 0 32 32" fill="none" xmlns="http://www.w3.org/2000/svg">
<path d="M0.621094 8.18016C0.621094 3.91115 4.08181 0.450439 8.35082 0.450439H23.8103C28.0793 0.450439 31.54 3.91116 31.54 8.18017V23.6396C31.54 27.9086 28.0793 31.3694 23.8103 31.3694H8.35082C4.0818 31.3694 0.621094 27.9086 0.621094 23.6396V8.18016Z" fill="#181C32"/>
<path d="M13.2176 7.72856L8.44369 11.4485C7.64656 12.0685 7 13.3882 7 14.389V20.952C7 23.0069 8.67397 24.6897 10.7288 24.6897H20.9852C23.04 24.6897 24.714 23.0069 24.714 20.9609V14.513C24.714 13.4413 23.9965 12.0685 23.1197 11.4574L17.6461 7.62228C16.4061 6.75429 14.4133 6.79858 13.2176 7.72856Z" stroke="white" stroke-width="1.28829" stroke-linecap="round" stroke-linejoin="round"/>
<path d="M14.5282 21.1559H17.1853C18.6467 21.1559 19.8424 19.9602 19.8424 18.4988V15.8417C19.8424 14.3803 18.6467 13.1846 17.1853 13.1846H14.5282C13.0668 13.1846 11.8711 14.3803 11.8711 15.8417V18.4988C11.8711 19.9602 13.0668 21.1559 14.5282 21.1559Z" stroke="white" stroke-width="0.901802" stroke-linecap="round" stroke-linejoin="round"/>
<path d="M15.8564 13.1846V21.1559" stroke="white" stroke-width="0.901802" stroke-linecap="round" stroke-linejoin="round"/>
<path d="M11.8711 17.1702H19.8424" stroke="white" stroke-width="0.901802" stroke-linecap="round" stroke-linejoin="round"/>
</svg>
