<svg width="32" height="31" viewBox="0 0 32 31" fill="none" xmlns="http://www.w3.org/2000/svg">
<path d="M13.4969 7.16997L8.72299 10.8899C7.92586 11.5099 7.2793 12.8296 7.2793 13.8304V20.3934C7.2793 22.4483 8.95327 24.1311 11.0081 24.1311H21.2645C23.3193 24.1311 24.9933 22.4483 24.9933 20.4023V13.9544C24.9933 12.8827 24.2758 11.5099 23.399 10.8988L17.9254 7.06368C16.6854 6.1957 14.6926 6.23998 13.4969 7.16997Z" stroke="#181C32" stroke-width="1.28829" stroke-linecap="round" stroke-linejoin="round"/>
<path d="M14.808 20.5973H17.4651C18.9265 20.5973 20.1222 19.4016 20.1222 17.9402V15.2831C20.1222 13.8217 18.9265 12.626 17.4651 12.626H14.808C13.3466 12.626 12.1509 13.8217 12.1509 15.2831V17.9402C12.1509 19.4016 13.3466 20.5973 14.808 20.5973Z" stroke="#181C32" stroke-width="0.901802" stroke-linecap="round" stroke-linejoin="round"/>
<path d="M16.1362 12.626V20.5973" stroke="#181C32" stroke-width="0.901802" stroke-linecap="round" stroke-linejoin="round"/>
<path d="M12.1509 16.6116H20.1222" stroke="#181C32" stroke-width="0.901802" stroke-linecap="round" stroke-linejoin="round"/>
<rect x="1.48203" y="0.644144" width="29.6306" height="29.6306" rx="7.08559" stroke="#181C32" stroke-width="1.28829"/>
</svg>
