<svg width="13" height="8" viewBox="0 0 13 8" fill="none" xmlns="http://www.w3.org/2000/svg">
<path d="M12.9996 7.4263V5.37852C13.0127 4.57452 12.7028 3.79793 12.1372 3.21754C11.5717 2.63714 10.7962 2.29984 9.97934 2.27895H1.9874L3.12101 1.00406C3.23093 0.890066 3.29221 0.738908 3.29221 0.581759C3.29221 0.42461 3.23093 0.273451 3.12101 0.159452C3.06934 0.10777 3.00751 0.0669856 2.93929 0.0395875C2.87108 0.0121889 2.79791 -0.00125027 2.72424 9.10759e-05C2.64304 0.000335217 2.56282 0.0175033 2.48885 0.0504642C2.41488 0.0834255 2.34884 0.131433 2.29509 0.191324L0.149332 2.58173C0.0529508 2.69281 0 2.83408 0 2.98014C0 3.12619 0.0529508 3.26746 0.149332 3.37854L2.29509 5.52991C2.34787 5.58291 2.41086 5.62502 2.48038 5.65377C2.5499 5.68251 2.62455 5.69732 2.69995 5.69732C2.77536 5.69732 2.85001 5.68251 2.91953 5.65377C2.98905 5.62502 3.05204 5.58291 3.10481 5.52991C3.21473 5.41591 3.27601 5.26475 3.27601 5.1076C3.27601 4.95045 3.21473 4.7993 3.10481 4.6853L1.85784 3.46619H9.95505C10.4605 3.47665 10.9411 3.68377 11.2917 4.04219C11.6422 4.40061 11.8342 4.88112 11.8255 5.37852V7.4263C11.8255 7.57846 11.8869 7.72438 11.9963 7.83197C12.1056 7.93956 12.2539 8 12.4085 8C12.5631 8 12.7114 7.93956 12.8207 7.83197C12.9301 7.72438 12.9915 7.57846 12.9915 7.4263H12.9996Z" fill="#002452"/>
</svg>
