<svg width="692" height="782" viewBox="0 0 692 782" fill="none" xmlns="http://www.w3.org/2000/svg">
<g clip-path="url(#clip0_260_1643)">
<rect width="692" height="782" fill="#F0F0F0" fill-opacity="0.8"/>
<g clip-path="url(#clip1_260_1643)">
<path opacity="0.8" d="M184 157L212.16 378.93H433.59L184 157Z" fill="#EFC144"/>
<path opacity="0.6" d="M508.21 157L477.67 378.93H256.24L508.21 157Z" fill="#AA46C3"/>
<path d="M264.97 558.26L240.76 482.09L222.88 558.26L199.52 552.77L227.33 434.26L250.45 433.36L287.84 550.99L264.97 558.26Z" fill="#F2CD69"/>
<path d="M351.59 560.9L302.06 559.85L291.65 542.34L334.45 459.71L304.18 459.07L304.69 435.08L354.23 436.12L364.63 453.64L321.83 536.26L352.1 536.9L351.59 560.9Z" fill="#C77D9E"/>
<path d="M419.29 561.12L416.1 441.05L439 435.72L467.15 497L465.52 435.5L489.51 434.86L492.7 554.93L469.8 560.26L441.65 498.98L443.28 560.48L419.29 561.12Z" fill="#CB8DDA"/>
<path d="M376.654 435.224L369.412 559.313L393.371 560.711L400.613 436.622L376.654 435.224Z" fill="#7DB6F1"/>
<path d="M217.61 602.29V603.63C217.61 608.65 216.71 614.16 209.56 614.16C202.41 614.16 201.55 609.31 201.55 603.51V583.41C201.55 577.09 204.27 573.59 209.62 573.59C216.25 573.59 217.44 578.3 217.44 583.48V585.02H213.17V583.16C213.17 580.03 212.68 577.43 209.56 577.43C206.6 577.43 205.85 579.78 205.85 583.26V603.78C205.85 607.74 206.72 610.35 209.68 610.35C212.64 610.35 213.32 607.68 213.32 603.96V602.3H217.62L217.61 602.29Z" fill="#6D6D6D"/>
<path d="M226.2 572.36V586.22C226.98 584.48 228.73 583.04 231.71 583.04C236.22 583.04 237.57 586.43 237.57 590.77V613.63H233.36V591.84C233.36 589.33 233.02 586.89 230.17 586.89C226.94 586.89 226.2 589.35 226.2 593.74V613.63H221.99V572.36H226.2Z" fill="#6D6D6D"/>
<path d="M256.75 608.41C256.75 610.46 256.78 612.73 256.87 613.62H252.97C252.82 612.89 252.68 611.68 252.65 611.17C251.68 613.4 249.83 614.09 247.72 614.09C243.37 614.09 241.64 610.23 241.64 605.58V605.05C241.64 598.24 245.87 595.83 251.23 595.83H252.54V591.06C252.54 588.33 252.08 586.61 249.72 586.61C247.36 586.61 246.74 588.4 246.74 590.75V591.55H242.59V590.8C242.59 586.59 244.24 583.02 249.86 583.02C255.11 583.02 256.75 586.31 256.75 590.75V608.4V608.41ZM252.63 599.19H251.16C247.75 599.19 245.72 600.62 245.72 604.97V605.48C245.72 608.17 246.55 610.34 248.91 610.34C251.68 610.34 252.63 608.12 252.63 603.62V599.2V599.19Z" fill="#6D6D6D"/>
<path d="M262.34 592.68C262.34 586.63 262.34 585 262.28 583.51H266.29C266.38 584.19 266.46 585.24 266.46 586.52C267.35 584.31 269.14 583.03 271.98 583.03C275.28 583.03 277.92 584.91 277.92 590.45V613.63H273.71V591.28C273.71 588.36 272.73 586.89 270.55 586.89C268.03 586.89 266.55 588.14 266.55 593.84V613.63H262.34V592.68Z" fill="#6D6D6D"/>
<path d="M298.27 613C298.27 619.11 297.59 624.26 290.05 624.26C283.77 624.26 282.59 620.04 282.59 616.77V616.62H286.83V616.8C286.83 618.29 287.39 620.69 290.28 620.69C293.39 620.69 294.07 618.37 294.07 614.03V610.16C293.27 612.21 291.65 613.3 288.98 613.3C284.38 613.3 282.61 609.94 282.61 604.08V591.98C282.61 586.68 284.91 583.03 289.6 583.03C292.69 583.03 294.09 584.61 294.53 586.13C294.53 585.28 294.68 584.14 294.76 583.51H298.4C298.34 585.17 298.28 587.88 298.28 591.44V613.01L298.27 613ZM286.84 592.21V603.74C286.84 607.61 287.85 609.51 290.13 609.51C293.56 609.51 294.1 606.08 294.1 602.02V593.12C294.1 589.66 293.73 586.88 290.52 586.88C287.94 586.88 286.84 588.78 286.84 592.2V592.21Z" fill="#6D6D6D"/>
<path d="M307.08 599.43V604.36C307.08 607.36 307.68 610.48 310.65 610.48C313.62 610.48 314.03 608.16 314.03 605.27V605.02H318.15V605.23C318.15 608.72 317.34 614.09 310.66 614.09C304.37 614.09 302.95 609.96 302.95 603.85V592.63C302.95 588.06 304.55 583.02 310.73 583.02C316.54 583.02 318.24 587.33 318.24 592.63V599.42H307.08V599.43ZM314.17 595.99V592.23C314.17 589.42 313.72 586.66 310.7 586.66C307.85 586.66 307.11 589.01 307.11 592.26V595.99H314.17Z" fill="#6D6D6D"/>
<path d="M333.69 613.62V598.87C333.69 598.43 333.63 598.17 333.52 597.8L326.25 574.1H330.87C332.83 581.25 335.2 589.77 335.86 593.4H335.92C336.68 589.59 339.09 580.93 340.9 574.1H345.36L338.01 598.07C337.95 598.33 337.89 598.65 337.89 599.25V613.62H333.68H333.69Z" fill="#6D6D6D"/>
<path d="M360.8 592.05V604.65C360.8 611.18 357.71 614.09 352.87 614.09C348.03 614.09 345.09 611.22 345.09 604.81V591.94C345.09 586.14 348.15 583.02 353.04 583.02C357.93 583.02 360.79 586.32 360.79 592.04L360.8 592.05ZM349.33 591.93V604.96C349.33 608.24 350.43 610.34 352.96 610.34C355.3 610.34 356.56 608.73 356.56 604.9V591.9C356.56 588.94 355.58 586.79 352.96 586.79C350.34 586.79 349.33 588.64 349.33 591.93Z" fill="#6D6D6D"/>
<path d="M380.84 605.49C380.84 609.39 380.84 612.2 380.9 613.63H376.89C376.8 613.08 376.72 611.56 376.72 610.5C375.79 613.23 373.89 614.1 371.31 614.1C368.73 614.1 365.45 613.14 365.45 606.41V583.51H369.66V605.31C369.66 608.88 370.62 610.29 372.86 610.29C374.97 610.29 376.65 609.02 376.65 603.27V583.52H380.86V605.5L380.84 605.49Z" fill="#6D6D6D"/>
<path d="M386.36 593.76C386.36 588.9 386.39 586.18 386.3 583.51H390.31C390.37 584.3 390.46 586.19 390.46 588.22C391.57 584.51 394.17 583.17 396.81 583.11V588.31C393.09 588.34 390.57 590.49 390.57 595.93V613.64H386.36V593.77V593.76Z" fill="#6D6D6D"/>
<path d="M426.01 597.13C426.01 589.89 426.13 582.08 426.25 577.85H426.19C425.21 584.48 422.19 601.88 420.07 613.62H415.96C414.36 603.45 411.24 584.87 410.29 577.82H410.17C410.29 582.4 410.5 591.37 410.5 598.14V613.62H406.59V574.1H412.82C414.99 585.78 417.58 600.27 418.11 605.3H418.17C418.79 600.37 421.81 585.09 423.97 574.1H430.07V613.62H425.99V597.13H426.01Z" fill="#6D6D6D"/>
<path d="M450.63 592.05V604.65C450.63 611.18 447.54 614.09 442.7 614.09C437.86 614.09 434.92 611.22 434.92 604.81V591.94C434.92 586.14 437.98 583.02 442.87 583.02C447.76 583.02 450.62 586.32 450.62 592.04L450.63 592.05ZM439.16 591.93V604.96C439.16 608.24 440.26 610.34 442.79 610.34C445.13 610.34 446.39 608.73 446.39 604.9V591.9C446.39 588.94 445.41 586.79 442.79 586.79C440.17 586.79 439.16 588.64 439.16 591.93Z" fill="#6D6D6D"/>
<path d="M470.27 592.05V604.65C470.27 611.18 467.18 614.09 462.34 614.09C457.5 614.09 454.56 611.22 454.56 604.81V591.94C454.56 586.14 457.62 583.02 462.51 583.02C467.4 583.02 470.26 586.32 470.26 592.04L470.27 592.05ZM458.8 591.93V604.96C458.8 608.24 459.9 610.34 462.43 610.34C464.77 610.34 466.03 608.73 466.03 604.9V591.9C466.03 588.94 465.05 586.79 462.43 586.79C459.81 586.79 458.8 588.64 458.8 591.93Z" fill="#6D6D6D"/>
<path d="M489.91 572.36V605.87C489.91 609.45 489.91 611.94 489.97 613.63H485.96C485.87 613.06 485.79 611.4 485.79 610.67C485.01 612.52 483.63 614.11 480.54 614.11C475.47 614.11 474.2 610.1 474.2 604.32V591.98C474.2 586.66 476.31 583.05 480.98 583.05C483.55 583.05 485.04 584.1 485.7 585.31V572.38H489.91V572.36ZM478.44 592.22V604.45C478.44 608.28 479.39 610.25 481.82 610.25C484.97 610.25 485.7 607.24 485.7 603.09V593.19C485.7 589.88 485.37 586.89 481.94 586.89C479.44 586.89 478.44 588.95 478.44 592.22Z" fill="#6D6D6D"/>
</g>
</g>
<defs>
<clipPath id="clip0_260_1643">
<rect width="692" height="782" rx="12" fill="white"/>
</clipPath>
<clipPath id="clip1_260_1643">
<rect width="324.21" height="467.26" fill="white" transform="translate(184 157)"/>
</clipPath>
</defs>
</svg>
