<svg width="365" height="81" viewBox="0 0 365 81" fill="none" xmlns="http://www.w3.org/2000/svg">
<g clip-path="url(#clip0_262_1840)">
<path d="M40.1927 80.3854C62.3905 80.3854 80.3854 62.3905 80.3854 40.1927C80.3854 17.9949 62.3905 0 40.1927 0C17.9949 0 0 17.9949 0 40.1927C0 62.3905 17.9949 80.3854 40.1927 80.3854Z" fill="#F2CD69"/>
<path d="M133.866 80.3854C156.064 80.3854 174.059 62.3905 174.059 40.1927C174.059 17.9949 156.064 0 133.866 0C111.668 0 93.6733 17.9949 93.6733 40.1927C93.6733 62.3905 111.668 80.3854 133.866 80.3854Z" fill="#C77D9E"/>
<path d="M229.018 80.3854C251.216 80.3854 269.211 62.3905 269.211 40.1927C269.211 17.9949 251.216 0 229.018 0C206.821 0 188.826 17.9949 188.826 40.1927C188.826 62.3905 206.821 80.3854 229.018 80.3854Z" fill="#7DB6F1"/>
<path d="M324.417 80.3854C346.615 80.3854 364.61 62.3905 364.61 40.1927C364.61 17.9949 346.615 0 324.417 0C302.22 0 284.225 17.9949 284.225 40.1927C284.225 62.3905 302.22 80.3854 324.417 80.3854Z" fill="#CB8DDA"/>
</g>
<defs>
<clipPath id="clip0_262_1840">
<rect width="364.61" height="80.3971" fill="white"/>
</clipPath>
</defs>
</svg>
